<svg class="animated" id="freepik_stories-bible-teaching" xmlns="http://www.w3.org/2000/svg" viewBox="0 0 500 500" version="1.1" xmlns:xlink="http://www.w3.org/1999/xlink" xmlns:svgjs="http://svgjs.com/svgjs"><style>svg#freepik_stories-bible-teaching:not(.animated) .animable {opacity: 0;}svg#freepik_stories-bible-teaching.animated #freepik--Book--inject-1 {animation: 1.5s Infinite  linear floating;animation-delay: 0s;}svg#freepik_stories-bible-teaching.animated #freepik--speech-bubble--inject-1 {animation: 1.5s Infinite  linear wind;animation-delay: 0s;}svg#freepik_stories-bible-teaching.animated #freepik--Plant--inject-1 {animation: 1.5s Infinite  linear wind;animation-delay: 0s;}            @keyframes floating {                0% {                    opacity: 1;                    transform: translateY(0px);                }                50% {                    transform: translateY(-10px);                }                100% {                    opacity: 1;                    transform: translateY(0px);                }            }                    @keyframes wind {                0% {                    transform: rotate( 0deg );                }                25% {                    transform: rotate( 1deg );                }                75% {                    transform: rotate( -1deg );                }            }        </style><g id="freepik--background-complete--inject-1" style="transform-origin: 250px 228.23px 0px;" class="animable"><rect y="382.4" width="500" height="0.25" style="fill: rgb(235, 235, 235); transform-origin: 250px 382.525px 0px;" id="el9ss7g5cyvrp" class="animable"></rect><rect x="416.78" y="398.49" width="33.12" height="0.25" style="fill: rgb(235, 235, 235); transform-origin: 433.34px 398.615px 0px;" id="elaz9m8rq0kb4" class="animable"></rect><rect x="322.53" y="401.21" width="8.69" height="0.25" style="fill: rgb(235, 235, 235); transform-origin: 326.875px 401.335px 0px;" id="elnxc2lnn7ine" class="animable"></rect><rect x="396.59" y="389.21" width="19.19" height="0.25" style="fill: rgb(235, 235, 235); transform-origin: 406.185px 389.335px 0px;" id="elu2dva7oebdd" class="animable"></rect><rect x="52.46" y="390.89" width="43.19" height="0.25" style="fill: rgb(235, 235, 235); transform-origin: 74.055px 391.015px 0px;" id="elqp2erx6411" class="animable"></rect><rect x="104.56" y="390.89" width="6.33" height="0.25" style="fill: rgb(235, 235, 235); transform-origin: 107.725px 391.015px 0px;" id="elrewcfvjkeio" class="animable"></rect><rect x="131.47" y="395.11" width="93.68" height="0.25" style="fill: rgb(235, 235, 235); transform-origin: 178.31px 395.235px 0px;" id="el8l45sgdtygt" class="animable"></rect><path d="M237,337.8H43.91a5.71,5.71,0,0,1-5.7-5.71V60.66A5.71,5.71,0,0,1,43.91,55H237a5.71,5.71,0,0,1,5.71,5.71V332.09A5.71,5.71,0,0,1,237,337.8ZM43.91,55.2a5.46,5.46,0,0,0-5.45,5.46V332.09a5.46,5.46,0,0,0,5.45,5.46H237a5.47,5.47,0,0,0,5.46-5.46V60.66A5.47,5.47,0,0,0,237,55.2Z" style="fill: rgb(235, 235, 235); transform-origin: 140.46px 196.4px 0px;" id="elsgnh60t7s9" class="animable"></path><path d="M453.31,337.8H260.21a5.72,5.72,0,0,1-5.71-5.71V60.66A5.72,5.72,0,0,1,260.21,55h193.1A5.71,5.71,0,0,1,459,60.66V332.09A5.71,5.71,0,0,1,453.31,337.8ZM260.21,55.2a5.47,5.47,0,0,0-5.46,5.46V332.09a5.47,5.47,0,0,0,5.46,5.46h193.1a5.47,5.47,0,0,0,5.46-5.46V60.66a5.47,5.47,0,0,0-5.46-5.46Z" style="fill: rgb(235, 235, 235); transform-origin: 356.75px 196.4px 0px;" id="elev0pi7cnxz7" class="animable"></path><polygon points="95.81 135.04 132.78 113.53 161.26 113.53 198.84 134.02 198.84 273.4 95.81 273.4 95.81 135.04" style="fill: rgb(224, 224, 224); transform-origin: 147.325px 193.465px 0px;" id="eln16udar2dsc" class="animable"></polygon><path d="M199.9,273.4H95.81V135l1.06-1a73.21,73.21,0,0,1,51-20.49h0a73.23,73.23,0,0,1,51,20.49l1.06,1Zm-97.19-6.9H193V138a66.77,66.77,0,0,0-90.28,0Z" style="fill: rgb(250, 250, 250); transform-origin: 147.87px 193.455px 0px;" id="elhr2shw1hdvm" class="animable"></path><polygon points="145.26 267.33 150.44 267.33 150.44 221.07 194.3 221.07 194.3 215.89 150.44 215.89 150.44 168.58 194.3 168.58 194.3 163.4 150.44 163.4 150.44 119.54 145.26 119.54 145.26 163.4 101.41 163.4 101.41 168.58 145.26 168.58 145.26 215.89 101.41 215.89 101.41 221.07 145.26 221.07 145.26 267.33" style="fill: rgb(240, 240, 240); transform-origin: 147.855px 193.435px 0px;" id="elbo3lgim6f1u" class="animable"></polygon><path d="M203.35,276.85h-111V133.63l1-1a77.13,77.13,0,0,1,109,0l1,1ZM99.26,270h97.19V136.51a70.22,70.22,0,0,0-97.19,0Z" style="fill: rgb(240, 240, 240); transform-origin: 147.85px 193.464px 0px;" id="eliuazdc7cuc" class="animable"></path><path d="M392.86,138.62s1-6.63-3.83-10.89-4.41-6.78-3-7.11,2.66,3.93,4.78,5.1c0,0,.07-6.06-2.09-8.29s-3.29-8-1.24-8.09,2.27,3.42,2.7,5.91,2.71,6,2.71,6,.45-5.42,1.84-7.65-2.32-7.33-.89-9.57,4,2,3.77,6.81-3.4,9.88-2.65,14.88c0,0,1.4-3.51,2.67-3.83s2.54-2.64,3.39-3.5,1.91,2.12,0,4.88-6.81,10.16-6.06,16.13Z" style="fill: rgb(230, 230, 230); transform-origin: 393.588px 121.407px 0px;" id="el9clgcpk1qo" class="animable"></path><path d="M390,135.6l-1.58,9.94a5,5,0,0,0,5,5.84h1.69a5,5,0,0,0,5-5.84l-1.58-9.94Z" style="fill: rgb(230, 230, 230); transform-origin: 394.265px 143.49px 0px;" id="elv8ueew3wkln" class="animable"></path><rect x="301.99" y="147.72" width="111.93" height="5.75" style="fill: rgb(224, 224, 224); transform-origin: 357.955px 150.595px 0px;" id="elvt8uevmjs5a" class="animable"></rect><rect x="307.14" y="126.52" width="4.93" height="21.2" style="fill: rgb(235, 235, 235); transform-origin: 309.605px 137.12px 0px;" id="elzvx1hak9ty" class="animable"></rect><rect x="330.98" y="126.52" width="4.93" height="21.2" style="fill: rgb(235, 235, 235); transform-origin: 333.445px 137.12px 0px;" id="el8oar4771o8" class="animable"></rect><g id="elhtd0prmpwfw"><rect x="359.89" y="126.25" width="4.93" height="21.2" style="fill: rgb(235, 235, 235); transform-origin: 362.355px 136.85px 0px; transform: rotate(-9.78deg);" class="animable"></rect></g><rect x="313.25" y="129.31" width="4.93" height="18.41" style="fill: rgb(235, 235, 235); transform-origin: 315.715px 138.515px 0px;" id="el4dft3y0f3r7" class="animable"></rect><rect x="324.58" y="129.31" width="4.93" height="18.41" style="fill: rgb(235, 235, 235); transform-origin: 327.045px 138.515px 0px;" id="elad4tzsflvd" class="animable"></rect><rect x="353.19" y="129.31" width="4.93" height="18.41" style="fill: rgb(235, 235, 235); transform-origin: 355.655px 138.515px 0px;" id="elaw8vr6jjl2" class="animable"></rect><g id="el4sej7812u"><rect x="339.51" y="129" width="4.93" height="18.41" style="fill: rgb(235, 235, 235); transform-origin: 341.975px 138.205px 0px; transform: rotate(-12.53deg);" class="animable"></rect></g><rect x="319.98" y="125.47" width="2.47" height="22.25" style="fill: rgb(235, 235, 235); transform-origin: 321.215px 136.595px 0px;" id="elumfmsh2vlw" class="animable"></rect><rect x="349.31" y="125.47" width="2.47" height="22.25" style="fill: rgb(235, 235, 235); transform-origin: 350.545px 136.595px 0px;" id="eltbniq14a2lr" class="animable"></rect><g id="elt4hog7qokc"><rect x="301.99" y="190.65" width="111.93" height="5.75" style="fill: rgb(224, 224, 224); transform-origin: 357.955px 193.525px 0px; transform: rotate(180deg);" class="animable"></rect></g><g id="elecsh4lxgvwr"><rect x="403.84" y="169.45" width="4.93" height="21.2" style="fill: rgb(235, 235, 235); transform-origin: 406.305px 180.05px 0px; transform: rotate(180deg);" class="animable"></rect></g><g id="elr8d53s906nm"><rect x="379.99" y="169.45" width="4.93" height="21.2" style="fill: rgb(235, 235, 235); transform-origin: 382.455px 180.05px 0px; transform: rotate(180deg);" class="animable"></rect></g><g id="el757qtgxl787"><rect x="351.09" y="169.19" width="4.93" height="21.2" style="fill: rgb(235, 235, 235); transform-origin: 353.555px 179.79px 0px; transform: rotate(-170.22deg);" class="animable"></rect></g><g id="elybmlgau2ig"><rect x="397.73" y="172.25" width="4.93" height="18.41" style="fill: rgb(235, 235, 235); transform-origin: 400.195px 181.455px 0px; transform: rotate(180deg);" class="animable"></rect></g><g id="elg984443ts89"><rect x="386.39" y="172.25" width="4.93" height="18.41" style="fill: rgb(235, 235, 235); transform-origin: 388.855px 181.455px 0px; transform: rotate(180deg);" class="animable"></rect></g><g id="elzrdeud42ve"><rect x="357.78" y="172.25" width="4.93" height="18.41" style="fill: rgb(235, 235, 235); transform-origin: 360.245px 181.455px 0px; transform: rotate(180deg);" class="animable"></rect></g><g id="el613t2hbvffg"><rect x="371.46" y="171.93" width="4.93" height="18.41" style="fill: rgb(235, 235, 235); transform-origin: 373.925px 181.135px 0px; transform: rotate(-167.47deg);" class="animable"></rect></g><g id="elbpmq37icag4"><rect x="393.46" y="168.4" width="2.47" height="22.25" style="fill: rgb(235, 235, 235); transform-origin: 394.695px 179.525px 0px; transform: rotate(180deg);" class="animable"></rect></g><g id="elaxtloutts3r"><rect x="364.13" y="168.4" width="2.47" height="22.25" style="fill: rgb(235, 235, 235); transform-origin: 365.365px 179.525px 0px; transform: rotate(180deg);" class="animable"></rect></g><g id="elys89e4aved"><rect x="312.73" y="173.87" width="24.03" height="16.59" style="fill: rgb(235, 235, 235); transform-origin: 324.745px 182.165px 0px; transform: rotate(180deg);" class="animable"></rect></g></g><g id="freepik--Shadow--inject-1" style="transform-origin: 250px 416.24px 0px;" class="animable"><ellipse id="freepik--path--inject-1" cx="250" cy="416.24" rx="193.89" ry="11.32" style="fill: rgb(245, 245, 245); transform-origin: 250px 416.24px 0px;" class="animable"></ellipse></g><g id="freepik--Book--inject-1" style="transform-origin: 302.605px 288.445px 0px;" class="animable"><rect x="215.91" y="168.21" width="141.05" height="240.47" rx="2.05" style="fill: rgb(144, 202, 249); transform-origin: 286.435px 288.445px 0px;" id="elbpxjalkden" class="animable"></rect><g id="el7i5thhz5j26"><rect x="215.91" y="168.21" width="141.05" height="240.47" rx="2.05" style="fill: rgb(255, 255, 255); opacity: 0.2; transform-origin: 286.435px 288.445px 0px;" class="animable"></rect></g><g id="elnqlhqu6j0qq"><rect x="215.91" y="377.75" width="3.81" height="8.11" style="isolation: isolate; opacity: 0.2; transform-origin: 217.815px 381.805px 0px;" class="animable"></rect></g><g id="elehwqt4vi0wv"><rect x="215.91" y="390.41" width="3.81" height="3.81" style="isolation: isolate; opacity: 0.2; transform-origin: 217.815px 392.315px 0px;" class="animable"></rect></g><g id="elyaq8iou0hwi"><rect x="215.91" y="189.21" width="3.81" height="8.11" style="isolation: isolate; opacity: 0.2; transform-origin: 217.815px 193.265px 0px; transform: rotate(180deg);" class="animable"></rect></g><g id="el2wprfoj3bpk"><rect x="215.91" y="180.85" width="3.81" height="3.81" style="isolation: isolate; opacity: 0.2; transform-origin: 217.815px 182.755px 0px; transform: rotate(180deg);" class="animable"></rect></g><rect x="248.25" y="168.21" width="141.05" height="240.47" rx="2.05" style="fill: rgb(144, 202, 249); transform-origin: 318.775px 288.445px 0px;" id="eljg89zswa1hl" class="animable"></rect><g id="elhfhpdd5zcpt"><path d="M386.45,170.27V406.64a2.05,2.05,0,0,1-2.06,2H250.3a2,2,0,0,1-2.05-2V170.27a2.05,2.05,0,0,1,2.05-2.06H384.39A2.06,2.06,0,0,1,386.45,170.27Z" style="isolation: isolate; opacity: 0.2; transform-origin: 317.35px 288.425px 0px;" class="animable"></path></g><rect x="245.4" y="172.86" width="136.09" height="232.02" rx="1.98" style="fill: rgb(255, 255, 255); transform-origin: 313.445px 288.87px 0px;" id="elo4xsy8cesla" class="animable"></rect><rect x="219.71" y="168.21" width="141.05" height="240.47" rx="2.05" style="fill: rgb(144, 202, 249); transform-origin: 290.235px 288.445px 0px;" id="elxsz914ayr" class="animable"></rect><g id="el9nmonqm84ug"><path d="M357.91,170.27V406.64a2,2,0,0,1-2.05,2H221.76a2,2,0,0,1-2-2V170.27a2,2,0,0,1,2-2.06h134.1A2.05,2.05,0,0,1,357.91,170.27Z" style="fill: rgb(255, 255, 255); isolation: isolate; opacity: 0.4; transform-origin: 288.835px 288.425px 0px;" class="animable"></path></g><path d="M276.75,217.46v10.59H275.1v-4.54h-4.57v4.54h-1.64V217.46h1.64v4.37h4.57v-4.37Z" style="fill: rgb(255, 255, 255); transform-origin: 272.82px 222.755px 0px;" id="eln8qmr6e6ae" class="animable"></path><path d="M278.49,222.76c0-3.13,2-5.45,4.76-5.45s4.76,2.3,4.76,5.45-2,5.44-4.76,5.44S278.49,225.89,278.49,222.76Zm7.87,0c0-2.17-1.33-3.72-3.11-3.72s-3.11,1.55-3.11,3.72,1.33,3.72,3.11,3.72S286.36,224.92,286.36,222.76Z" style="fill: rgb(255, 255, 255); transform-origin: 283.25px 222.755px 0px;" id="els7rexekrubi" class="animable"></path><path d="M289.75,217.46h1.65v8.93H296v1.66h-6.27Z" style="fill: rgb(255, 255, 255); transform-origin: 292.865px 222.755px 0px;" id="elz8igi07zl8" class="animable"></path><path d="M300.21,224.31v3.74h-1.64v-3.71l-3.47-6.88h1.75l2.59,5.16,2.62-5.16h1.61Z" style="fill: rgb(255, 255, 255); transform-origin: 299.385px 222.755px 0px;" id="elfit9x53dnvw" class="animable"></path><path d="M262,254c0,4-2.65,6.41-7.72,6.41h-9.82V236.81h9.25c4.74,0,7.28,2.39,7.28,6.14a5.92,5.92,0,0,1-2.54,5.2C260.58,249,262,251,262,254Zm-13.87-13.77v6.51h5.19c2.53,0,4-1.08,4-3.24s-1.44-3.27-4-3.27Zm10.18,13.33c0-2.36-1.5-3.41-4.26-3.41h-5.92V257h5.92C256.83,257,258.33,256,258.33,253.58Z" style="fill: rgb(255, 255, 255); transform-origin: 253.23px 248.61px 0px;" id="elt2tp2d9lfa" class="animable"></path><path d="M265.94,236.81h3.67v23.62h-3.67Z" style="fill: rgb(255, 255, 255); transform-origin: 267.775px 248.62px 0px;" id="el23n4mmieiac" class="animable"></path><path d="M292.48,254c0,4-2.65,6.41-7.73,6.41h-9.81V236.81h9.25c4.74,0,7.27,2.39,7.27,6.14a5.91,5.91,0,0,1-2.53,5.2C291,249,292.48,251,292.48,254Zm-13.87-13.77v6.51h5.18c2.54,0,4-1.08,4-3.24s-1.44-3.27-4-3.27Zm10.18,13.33c0-2.36-1.5-3.41-4.26-3.41h-5.92V257h5.92C287.29,257,288.79,256,288.79,253.58Z" style="fill: rgb(255, 255, 255); transform-origin: 283.71px 248.61px 0px;" id="elwnv0y9f3jg" class="animable"></path><path d="M296.4,236.81h3.67v19.91h10.32v3.71h-14Z" style="fill: rgb(255, 255, 255); transform-origin: 303.39px 248.62px 0px;" id="el40vb9b88g6i" class="animable"></path><path d="M328.1,256.76v3.67H313.3V236.81h14.41v3.68H317v6.14h9.53v3.61H317v6.52Z" style="fill: rgb(255, 255, 255); transform-origin: 320.7px 248.62px 0px;" id="elfz3png7ak2s" class="animable"></path><polygon points="299.79 287.91 288.13 287.91 288.13 277.27 283.24 277.27 283.24 287.91 271.58 287.91 271.58 293.39 283.24 293.39 283.24 319.54 288.13 319.54 288.13 293.39 299.79 293.39 299.79 287.91" style="fill: rgb(255, 255, 255); transform-origin: 285.685px 298.405px 0px;" id="elyv09x313r7l" class="animable"></polygon><g id="elju64cklh6b"><g style="isolation: isolate; opacity: 0.4; transform-origin: 288.8px 288.44px 0px;" class="animable"><path d="M346.39,404.88H231.23v-.95c0-4.47-3-8.09-6.65-8.09h-.09l-1,0V181h.95c3.64,0,6.63-3.59,6.65-8v-1H346.28v1c0,4.45,3,8.06,6.65,8.06l1.18-.05V395.91H353c-3.62,0-6.61,3.6-6.62,8ZM233.1,403H344.53c.4-4.71,3.63-8.47,7.68-8.93V182.89c-4.11-.41-7.4-4.21-7.79-9H233c-.41,4.65-3.58,8.37-7.56,8.89V394C229.49,394.45,232.72,398.24,233.1,403Z" style="fill: rgb(255, 255, 255); transform-origin: 288.8px 288.44px 0px;" id="el9qlv4sbsrtp" class="animable"></path></g></g><g id="el3bn4k2bs7cm"><g style="opacity: 0.2; transform-origin: 370.66px 288.73px 0px;" class="animable"><polygon points="376.9 404.81 377.38 207.98 377.86 404.81 376.9 404.81" id="eljoddtt03zs" style="transform-origin: 377.38px 306.395px 0px;" class="animable"></polygon><polygon points="373.56 172.86 373.08 395.78 372.61 172.86 373.56 172.86" id="el288vzbk5zwq" style="transform-origin: 373.085px 284.32px 0px;" class="animable"></polygon><polygon points="364.41 172.36 363.94 376.38 363.46 172.36 364.41 172.36" id="eli8wd2uwrfv" style="transform-origin: 363.935px 274.37px 0px;" class="animable"></polygon><polygon points="368.33 172.97 367.85 278.34 367.38 172.97 368.33 172.97" id="el14j84wh1094" style="transform-origin: 367.855px 225.655px 0px;" class="animable"></polygon><polygon points="369.04 405.1 369.52 296.76 369.99 405.1 369.04 405.1" id="el3oaetmw2wdp" style="transform-origin: 369.515px 350.93px 0px;" class="animable"></polygon></g></g></g><g id="freepik--character-2--inject-1" style="transform-origin: 365.959px 317.58px 0px;" class="animable"><g id="ele1kqhky1jt4"><rect x="350.81" y="325.11" width="68.94" height="4.77" style="fill: rgb(38, 50, 56); transform-origin: 385.28px 327.495px 0px; transform: rotate(-82.2deg);" class="animable"></rect></g><g id="el1n266za0q4w"><rect x="380.35" y="325.11" width="68.94" height="4.77" style="fill: rgb(38, 50, 56); transform-origin: 414.82px 327.495px 0px; transform: rotate(-82.2deg);" class="animable"></rect></g><g id="el04w9qxmm3ivj"><g style="isolation: isolate; opacity: 0.3; transform-origin: 385.28px 327.495px 0px;" class="animable"><g id="elnh7otlhnh5"><rect x="350.81" y="325.11" width="68.94" height="4.77" style="fill: rgb(255, 255, 255); transform-origin: 385.28px 327.495px 0px; transform: rotate(-82.2deg);" class="animable"></rect></g></g></g><g id="elfxub9xj1eob"><g style="isolation: isolate; opacity: 0.4; transform-origin: 414.82px 327.495px 0px;" class="animable"><g id="el1gpbl2edai3"><rect x="380.35" y="325.11" width="68.94" height="4.77" style="fill: rgb(255, 255, 255); transform-origin: 414.82px 327.495px 0px; transform: rotate(-82.2deg);" class="animable"></rect></g></g></g><polygon points="384.03 417.61 377.39 417.61 376.57 376.48 376.23 361.64 385.19 361.64 384.84 376.48 384.03 417.61" style="fill: rgb(38, 50, 56); transform-origin: 380.71px 389.625px 0px;" id="elz6w4c8g7j6b" class="animable"></polygon><g id="el592ux8k7wdp"><polygon points="384.03 417.61 377.39 417.61 376.57 376.48 376.23 361.64 385.19 361.64 384.84 376.48 384.03 417.61" style="fill: rgb(255, 255, 255); isolation: isolate; opacity: 0.4; transform-origin: 380.71px 389.625px 0px;" class="animable"></polygon></g><g id="elm4rnjbetxe9"><polygon points="376.23 361.64 376.57 376.89 384.84 376.89 385.19 361.64 376.23 361.64" style="isolation: isolate; opacity: 0.2; transform-origin: 380.71px 369.265px 0px;" class="animable"></polygon></g><polygon points="350.1 417.61 352.99 362.69 360.77 362.69 356.73 417.61 350.1 417.61" style="fill: rgb(38, 50, 56); transform-origin: 355.435px 390.15px 0px;" id="elqo5p590opfc" class="animable"></polygon><g id="elppmficb9du"><polygon points="356.74 417.61 350.1 417.61 352.56 369.93 352.99 362.6 360.77 362.6 360.17 369.93 356.74 417.61" style="fill: rgb(255, 255, 255); isolation: isolate; opacity: 0.5; transform-origin: 355.435px 390.105px 0px;" class="animable"></polygon></g><g id="el9fmlj32sox"><polygon points="360.77 362.6 360.17 370.22 352.56 370.22 352.99 362.6 360.77 362.6" style="isolation: isolate; opacity: 0.2; transform-origin: 356.665px 366.41px 0px;" class="animable"></polygon></g><polygon points="404.69 417.61 400.64 362.69 408.43 362.69 411.32 417.61 404.69 417.61" style="fill: rgb(38, 50, 56); transform-origin: 405.98px 390.15px 0px;" id="el1rsis6in3m1i" class="animable"></polygon><g id="elc6jnt5l6ph9"><polygon points="404.68 417.61 401.25 369.93 400.64 362.6 408.43 362.6 408.86 369.93 411.31 417.61 404.68 417.61" style="fill: rgb(255, 255, 255); isolation: isolate; opacity: 0.5; transform-origin: 405.975px 390.105px 0px;" class="animable"></polygon></g><g id="elzsflmcnk9zh"><polygon points="400.64 362.6 401.25 370.22 408.86 370.22 408.43 362.6 400.64 362.6" style="isolation: isolate; opacity: 0.2; transform-origin: 404.75px 366.41px 0px;" class="animable"></polygon></g><g id="elruzxlq5st2a"><path d="M348.82,354.33H412.6a0,0,0,0,1,0,0v6.24a4.9,4.9,0,0,1-4.9,4.9h-54a4.9,4.9,0,0,1-4.9-4.9v-6.24A0,0,0,0,1,348.82,354.33Z" style="fill: rgb(38, 50, 56); transform-origin: 380.7px 359.9px 0px; transform: rotate(180deg);" class="animable"></path></g><g id="elfmg60c5mu8e"><rect x="345.76" y="359.91" width="69.9" height="5.57" rx="1.97" style="fill: rgb(38, 50, 56); transform-origin: 380.71px 362.695px 0px; transform: rotate(180deg);" class="animable"></rect></g><g id="el2z3rqgsqclf"><rect x="345.76" y="359.91" width="69.9" height="5.57" rx="1.97" style="fill: rgb(255, 255, 255); isolation: isolate; opacity: 0.6; transform-origin: 380.71px 362.695px 0px; transform: rotate(180deg);" class="animable"></rect></g><path d="M384.37,316.17H420a3.85,3.85,0,0,0,3.82-3.37l2.53-19.73a3,3,0,0,0-3-3.36H387.77a3.86,3.86,0,0,0-3.83,3.37l-2.53,19.73A3,3,0,0,0,384.37,316.17Z" style="fill: rgb(38, 50, 56); transform-origin: 403.88px 302.94px 0px;" id="elfx26tiib73" class="animable"></path><g id="elqa0fkbpqbo"><path d="M384.37,316.17H420a3.85,3.85,0,0,0,3.82-3.37l2.53-19.73a3,3,0,0,0-3-3.36H387.77a3.86,3.86,0,0,0-3.83,3.37l-2.53,19.73A3,3,0,0,0,384.37,316.17Z" style="fill: rgb(255, 255, 255); isolation: isolate; opacity: 0.6; transform-origin: 403.88px 302.94px 0px;" class="animable"></path></g><path d="M362.94,264.19s3.65-19.45,3.65-20.38,2.3-15,2.3-15,.5-5.64,4.52-8.57,15-3.73,17.83-2.36,10.05,5.86,11.88,19.76-1,47.36-1,47.36-4.6,5.9-8.23,4-15.8.87-18.51.87-12.41-3-12.41-3S361.57,271.54,362.94,264.19Z" style="fill: rgb(38, 50, 56); transform-origin: 383.037px 253.55px 0px;" id="el0tk6lfkqvkog" class="animable"></path><path d="M402.9,266.36s10.05,19.83,11.42,24.92,3.76,13.66-3.43,12.18-9.1-7.77-17.68-25.23Z" style="fill: rgb(38, 50, 56); transform-origin: 404.519px 284.995px 0px;" id="eliwp0gubk8zf" class="animable"></path><g id="elfkfyq1wlbp8"><path d="M402.9,266.36s10.05,19.83,11.42,24.92,3.76,13.66-3.43,12.18-9.1-7.77-17.68-25.23Z" style="fill: rgb(255, 255, 255); opacity: 0.2; transform-origin: 404.519px 284.995px 0px;" class="animable"></path></g><path d="M321,266.82l-9.76-2.57,3.58-8.06s7.08.84,8.55,6.53Z" style="fill: rgb(238, 193, 187); transform-origin: 317.305px 261.505px 0px;" id="elib6sgl4ifw" class="animable"></path><polygon points="305.92 259.37 310.03 254 314.77 256.19 311.19 264.25 305.92 259.37" style="fill: rgb(238, 193, 187); transform-origin: 310.345px 259.125px 0px;" id="elhnacd5vrlr" class="animable"></polygon><path d="M359.53,263.46s-7.84,5.1-19.17,13.69l-17.2-16.3-3.9,5.59s15.28,21.82,19.39,22.57,24-13.13,24-13.13Z" style="fill: rgb(38, 50, 56); transform-origin: 340.955px 274.945px 0px;" id="elgceowoxgduu" class="animable"></path><g id="el6yafi2qs8ek"><path d="M362.62,275.88s-4.35,3-9.4,6.19c-5.73,3.59-12.39,7.34-14.57,6.93-4.11-.74-19.39-22.56-19.39-22.56l3.9-5.59,17.2,16.3c11.33-8.59,19.17-13.69,19.17-13.69l2,8.2Z" style="fill: rgb(255, 255, 255); opacity: 0.2; transform-origin: 340.94px 274.94px 0px;" class="animable"></path></g><g id="elj67rcbfphj"><path d="M362.62,275.88s-4.35,3-9.4,6.19c2.79-5.8,8.35-10.41,8.35-10.41Z" style="isolation: isolate; opacity: 0.2; transform-origin: 357.92px 276.865px 0px;" class="animable"></path></g><path d="M355.29,265.21a32.84,32.84,0,0,1,7-3.7c4.22-1.63,10.38-1.76,19.17-1.47A61.53,61.53,0,0,1,401,264.19c2.36,1,3.53,4.41,3.53,4.41S390,285.17,373.66,285C359.09,284.84,355.29,265.21,355.29,265.21Z" style="fill: rgb(38, 50, 56); transform-origin: 379.91px 272.46px 0px;" id="eljjs2zd3v4te" class="animable"></path><path d="M399.75,270.9c-3.15,9.49-3.3,30.92-2.19,42.77l-35.81-.23c-6.16-23.62-4.07-40.2-3.55-45.74a9.18,9.18,0,0,1,1.69-4.68s7.3-3,13.66-3a106.38,106.38,0,0,1,14.68,1.55A100.08,100.08,0,0,1,398.92,264a2.84,2.84,0,0,1,1.91,3.65C400.46,268.77,400.09,269.85,399.75,270.9Z" style="fill: rgb(38, 50, 56); transform-origin: 379.21px 286.845px 0px;" id="el4f7b3d5n2f2" class="animable"></path><g id="elle48l9gluw"><g style="opacity: 0.2; transform-origin: 379.21px 286.845px 0px;" class="animable"><path d="M399.75,270.9c-3.15,9.49-3.3,30.92-2.19,42.77l-35.81-.23c-6.16-23.62-4.07-40.2-3.55-45.74a9.18,9.18,0,0,1,1.69-4.68s7.3-3,13.66-3a106.38,106.38,0,0,1,14.68,1.55A100.08,100.08,0,0,1,398.92,264a2.84,2.84,0,0,1,1.91,3.65C400.46,268.77,400.09,269.85,399.75,270.9Z" style="fill: rgb(255, 255, 255); transform-origin: 379.21px 286.845px 0px;" id="eldjstaprl5u9" class="animable"></path></g></g><path d="M327.49,343.21c-.29,1.1,2.93,20.65,5.83,37.71,2.29,13.48,4.38,25.4,4.38,25.4l-6.15.57s-4.71-9.36-10-21.78a287.79,287.79,0,0,1-10.43-27.77c-3.78-12.22-5.76-23.43-3-29.13a6.82,6.82,0,0,1,2.39-2.84l.13-.08L311,325c4-2.33,10.5-3.61,17.9-4.22,13.31-1.09,29.63,0,40.21,1,6.61.63,11,1.21,11,1.21l8.64,32.21c-2.86-.11-5.67-.28-8.4-.52C349.63,352,328,341.42,327.49,343.21Z" style="fill: rgb(238, 193, 187); transform-origin: 347.79px 363.608px 0px;" id="elcmppklh6gov" class="animable"></path><path d="M383.31,411.69l-1.59.44-1-1.84-4.61,3.84-13.36,3.7s-2.72-1.55,3.17-5a5.18,5.18,0,0,0,.81-.59C369.69,409.7,373,403,373,403l7.33-2a8.26,8.26,0,0,1,.89.89C382.5,403.24,384.82,406.24,383.31,411.69Z" style="fill: rgb(38, 50, 56); transform-origin: 372.963px 409.415px 0px;" id="el0erea2mekc9d" class="animable"></path><path d="M381.25,401.85v0c-1.27-.81-4.36,5.15-7.14,7.65-2.48,2.23-5.54,3.77-7.38,2.71,2.95-2.53,6.36-11,6.36-11l5.89-1.63S380.72,401.25,381.25,401.85Z" style="fill: rgb(238, 193, 187); transform-origin: 373.99px 406.066px 0px;" id="el6jul4rfprtj" class="animable"></path><path d="M337.68,417.46H336l-.46-2-5.47,2.47H316.24s-2.21-2.22,4.4-4a5.71,5.71,0,0,0,.93-.36c3.52-1.65,8.53-7.23,8.53-7.23h7.61a10.29,10.29,0,0,1,.62,1.1C339.16,409.09,340.6,412.6,337.68,417.46Z" style="fill: rgb(38, 50, 56); transform-origin: 327.656px 412.135px 0px;" id="elnt8dxlcev1d" class="animable"></path><path d="M338.33,407.42v0c-1-1.12-5.58,3.8-8.92,5.47-3,1.49-6.35,2.15-7.84.64,3.52-1.65,9.06-8.86,9.06-8.86h6.11S338,406.7,338.33,407.42Z" style="fill: rgb(238, 193, 187); transform-origin: 329.95px 409.528px 0px;" id="el3u6r0456pms" class="animable"></path><path d="M344.07,346.86c-.14-.82,4.73-1.12,12.79-2.13,0,0-14.38-22.38-20.68-18.91-6.5,3.59-11.87,7.4-14.6,11.19l-.28.42a.65.65,0,0,0-.08.13,6.8,6.8,0,0,0-1,3.57c-.15,6.32,6.25,15.73,14.7,25.33a288.8,288.8,0,0,0,20.89,21.06c9.93,9.16,18.06,15.77,18.06,15.77l5.38-3s-6.79-10-14.4-21.38C355.2,364.5,344.26,348,344.07,346.86Z" style="fill: rgb(238, 193, 187); transform-origin: 349.734px 364.372px 0px;" id="elrnelo65ls7c" class="animable"></path><path d="M313.62,322.12c-13.7,3.92-6.82,39.13-2.16,54.65,0,0,50.28,2.88,57.17-2.38L355.29,358.2s18.24.74,23.92.74c22.7,0,29.1-5,28.94-17.2s-11.23-29.85-11.23-29.85l-35.52.19-3.52,8.26S332.46,316.72,313.62,322.12Z" style="fill: rgb(38, 50, 56); transform-origin: 356.85px 344.723px 0px;" id="elk3tqdvyvra" class="animable"></path><g id="ellyfl8pr4l2"><path d="M355.29,265.21a32.84,32.84,0,0,1,7-3.7c4.22-1.63,10.38-1.76,19.17-1.47A61.53,61.53,0,0,1,401,264.19c2.36,1,3.53,4.41,3.53,4.41S390,285.17,373.66,285C359.09,284.84,355.29,265.21,355.29,265.21Z" style="fill: rgb(255, 255, 255); opacity: 0.9; transform-origin: 379.91px 272.46px 0px;" class="animable"></path></g><path d="M371.73,290.19h-.05a.28.28,0,0,1-.22-.2c-.26-.75-6.12-18.63.1-26.6,2.15-2.75,5.5-4,10-3.63h0c4.21.32,6.83,1.33,7.81,3a3.37,3.37,0,0,1,0,3.18c-.92,1.95-16.71,23.23-17.38,24.14A.28.28,0,0,1,371.73,290.19Zm8.38-29.91c-3.58,0-6.29,1.16-8.09,3.46-5.45,7-1.12,22.46-.19,25.54,2.35-3.17,16.17-21.84,17-23.58a2.83,2.83,0,0,0,0-2.65c-.6-1-2.37-2.34-7.35-2.72C381,260.3,380.55,260.28,380.11,260.28Z" style="fill: rgb(38, 50, 56); transform-origin: 379.239px 274.944px 0px;" id="elaosyfzntvph" class="animable"></path><path d="M371.71,294.72a.29.29,0,0,1-.29-.29V289.9a.29.29,0,0,1,.58,0v4.53A.29.29,0,0,1,371.71,294.72Z" style="fill: rgb(255, 255, 255); transform-origin: 371.71px 292.166px 0px;" id="elumtyta0eka" class="animable"></path><path d="M372.74,291.37h-2.06a.29.29,0,1,1,0-.58h2.06a.29.29,0,0,1,0,.58Z" style="fill: rgb(255, 255, 255); transform-origin: 371.708px 291.08px 0px;" id="elz768oobsrqi" class="animable"></path><path d="M387.88,262.79s-9.14,5-12.53,4.06c-1.86-.51-4-3.92-.24-5.39,0,0,1.74-.55,2.11-3.32a13.47,13.47,0,0,0-.74-5.78c-.09-.29-.2-.61-.31-.93l10.18-6.36S382.77,258,387.88,262.79Z" style="fill: rgb(238, 193, 187); transform-origin: 380.457px 256.019px 0px;" id="el7lqw077zmuw" class="animable"></path><g id="el3iy4r0njcm8"><path d="M384.07,248.76s-.55,7.28-6.85,9.38a13.47,13.47,0,0,0-.74-5.78C380.19,250.4,384.07,248.76,384.07,248.76Z" style="isolation: isolate; opacity: 0.2; transform-origin: 380.275px 253.45px 0px;" class="animable"></path></g><path d="M389.59,222.57s-8.42-5.36-16.18.18-3.52,20,1.35,24,12.52,2.17,12.52,2.17,6.88-1.15,8.93-11.3C397.88,229.35,393.69,223.18,389.59,222.57Z" style="fill: rgb(38, 50, 56); transform-origin: 382.858px 234.789px 0px;" id="elbz6hfgymp74" class="animable"></path><path d="M381.38,224.4c-8.4-.79-11.53,3.46-12.95,12.06-1.79,10.75-.11,18.67,10.62,17.34C393.61,252,395.34,225.71,381.38,224.4Z" style="fill: rgb(238, 193, 187); transform-origin: 379.388px 239.126px 0px;" id="el6kfgaimayvf" class="animable"></path><path d="M373.9,236.5a17.83,17.83,0,0,1-2.77,3.26,2.32,2.32,0,0,0,2.13,1.16Z" style="fill: rgb(212, 130, 125); transform-origin: 372.515px 238.712px 0px;" id="els4io36wd2xs" class="animable"></path><path d="M379.11,236.3c-.08.68.23,1.29.69,1.34s.89-.46,1-1.15-.22-1.29-.68-1.34S379.19,235.61,379.11,236.3Z" style="fill: rgb(38, 50, 56); transform-origin: 379.959px 236.395px 0px;" id="el4aqv8doc36r" class="animable"></path><path d="M380.28,235.2l-1.43-.76S379.45,235.79,380.28,235.2Z" style="fill: rgb(38, 50, 56); transform-origin: 379.565px 234.895px 0px;" id="eliwzr5z7upl8" class="animable"></path><path d="M370.56,235.15c-.08.69.23,1.29.69,1.34s.9-.46,1-1.15-.23-1.29-.69-1.34S370.64,234.46,370.56,235.15Z" style="fill: rgb(38, 50, 56); transform-origin: 371.408px 235.245px 0px;" id="elkuzq0zz2u0r" class="animable"></path><path d="M371.73,234.05l-1.43-.76S370.9,234.64,371.73,234.05Z" style="fill: rgb(38, 50, 56); transform-origin: 371.015px 233.745px 0px;" id="els5x5p1hmc7p" class="animable"></path><path d="M383.27,232.47a.37.37,0,0,1-.3-.16,4.06,4.06,0,0,0-3.22-1.45.35.35,0,0,1-.37-.35.36.36,0,0,1,.35-.37,4.69,4.69,0,0,1,3.83,1.77.36.36,0,0,1-.09.5A.41.41,0,0,1,383.27,232.47Z" style="fill: rgb(38, 50, 56); transform-origin: 381.502px 231.304px 0px;" id="ellj1x0ym7rv" class="animable"></path><path d="M370.25,230.31a.37.37,0,0,1-.32-.19.36.36,0,0,1,.15-.49,4.27,4.27,0,0,1,3.74-.38.36.36,0,1,1-.31.65,3.56,3.56,0,0,0-3.09.37A.53.53,0,0,1,370.25,230.31Z" style="fill: rgb(38, 50, 56); transform-origin: 371.956px 229.647px 0px;" id="elemyj0f0a44d" class="animable"></path><path d="M389.24,239.42s-3.28-7.27-2.19-12.54c0,0-16-8.37-18.42,8.46,0,0-.22-15.16,14.26-14.14s12.44,22.14,4.39,27.74C387.28,248.94,391.27,244,389.24,239.42Z" style="fill: rgb(38, 50, 56); transform-origin: 381.093px 235.045px 0px;" id="eldfwvzcvbs2" class="animable"></path><path d="M387.7,241.07a3.72,3.72,0,0,1,4.29-3c2.58.53,3.32,6-3.28,6.67C387.76,244.84,387.32,243.88,387.7,241.07Z" style="fill: rgb(238, 193, 187); transform-origin: 390.712px 241.381px 0px;" id="elibirivoi9l" class="animable"></path><path d="M372,244.16a21.11,21.11,0,0,1,.92,2.88l.53,0c2.4-.21,3.45-1.1,3.88-2a3,3,0,0,0,.26-1.45,3.24,3.24,0,0,0-.14-.83,11.35,11.35,0,0,1-4.63,1.39C372.28,244.14,372,244.16,372,244.16Z" style="fill: rgb(38, 50, 56); transform-origin: 374.799px 244.9px 0px;" id="elxtjmma7uvc8" class="animable"></path><path d="M372.78,244.08l.29.84c2.26-.2,3.83-.65,4.48-1.4a3.24,3.24,0,0,0-.14-.83A11.35,11.35,0,0,1,372.78,244.08Z" style="fill: rgb(255, 255, 255); transform-origin: 375.165px 243.805px 0px;" id="el4ggt6eduye5" class="animable"></path><path d="M373.41,247c2.4-.21,3.45-1.1,3.88-2a8,8,0,0,0-2.62.76A3,3,0,0,0,373.41,247Z" style="fill: rgb(222, 87, 83); transform-origin: 375.35px 246px 0px;" id="eloyy05h28ujs" class="animable"></path><path d="M377.55,223.35s13.69,7.15,13.69,25.71l5.35-6.37s0-14.54-15.5-23c0,0-6.68,2.41-10.08,5.15s-2.38,10.46-2.38,10.46,1.22-7,2.38-8.27A14.54,14.54,0,0,1,377.55,223.35Z" style="fill: rgb(38, 50, 56); transform-origin: 382.538px 234.375px 0px;" id="elqgsycrawmwc" class="animable"></path><g id="elqq548oyuqt"><path d="M377.55,223.35s13.69,7.15,13.69,25.71l5.35-6.37s0-14.54-15.5-23c0,0-6.68,2.41-10.08,5.15s-2.38,10.46-2.38,10.46,1.22-7,2.38-8.27A14.54,14.54,0,0,1,377.55,223.35Z" style="fill: rgb(255, 255, 255); opacity: 0.9; transform-origin: 382.538px 234.375px 0px;" class="animable"></path></g><path d="M418.21,274l-2.63-1.56-9.76,2.51-13.12-3.61-3.14,9.92s-.81,11.1-.18,11.24,15,1.12,15,1.12l7.4-4.56Z" style="fill: rgb(224, 224, 224); transform-origin: 403.675px 282.48px 0px;" id="el2epbqix5cy6" class="animable"></path><polygon points="389.19 272 383.03 294.91 400.93 297.2 413.35 293.98 420 272.48 405.8 275.93 389.19 272" style="fill: rgb(144, 202, 249); transform-origin: 401.515px 284.6px 0px;" id="el2w9gt9eht6b" class="animable"></polygon><g id="el0icny4kmtuar"><polygon points="405.8 275.93 400.93 297.2 383.03 294.91 389.19 272 405.8 275.93" style="fill: rgb(255, 255, 255); isolation: isolate; opacity: 0.4; transform-origin: 394.415px 284.6px 0px;" class="animable"></polygon></g><g id="elzlha9v9szf8"><polygon points="405.8 275.93 400.93 297.2 413.35 293.98 420 272.48 405.8 275.93" style="fill: rgb(255, 255, 255); opacity: 0.2; transform-origin: 410.465px 284.84px 0px;" class="animable"></polygon></g><path d="M409.89,296.37l-5.28-6.64-4.68,7.48s2.35,5.39,7.89,3.43Z" style="fill: rgb(238, 193, 187); transform-origin: 404.91px 295.4px 0px;" id="elc8lm7mdm9c9" class="animable"></path><polygon points="395.31 290.4 395.46 296.81 399.93 297.21 404.61 289.73 395.31 290.4" style="fill: rgb(238, 193, 187); transform-origin: 399.96px 293.47px 0px;" id="eltybp60bx1ii" class="animable"></polygon></g><g id="freepik--speech-bubble--inject-1" style="transform-origin: 161.56px 218.685px 0px;" class="animable"><path d="M147.19,193.39h28.73a8.85,8.85,0,0,1,8.85,8.85v25a8.85,8.85,0,0,1-8.85,8.85H164.56l-3,7.89-3-7.89H147.19a8.84,8.84,0,0,1-8.84-8.85v-25A8.84,8.84,0,0,1,147.19,193.39Z" style="fill: rgb(144, 202, 249); transform-origin: 161.56px 218.685px 0px;" id="el4fiwor40qct" class="animable"></path><g id="el1nhzzbgahno"><path d="M147.19,193.39h28.73a8.85,8.85,0,0,1,8.85,8.85v25a8.85,8.85,0,0,1-8.85,8.85H164.56l-3,7.89-3-7.89H147.19a8.84,8.84,0,0,1-8.84-8.85v-25A8.84,8.84,0,0,1,147.19,193.39Z" style="fill: rgb(255, 255, 255); opacity: 0.7; transform-origin: 161.56px 218.685px 0px;" class="animable"></path></g><path d="M161.56,209.67c-5.77-6-12.24-3.52-12.24,2.32s12.24,13.92,12.24,13.92,12.23-8.08,12.23-13.92S167.33,203.67,161.56,209.67Z" style="fill: rgb(144, 202, 249); transform-origin: 161.555px 216.061px 0px;" id="elg2ud2ad92nq" class="animable"></path></g><g id="freepik--character-1--inject-1" style="transform-origin: 170.074px 334.946px 0px;" class="animable"><path d="M153.19,330.33h17.87a1.14,1.14,0,0,0,1.09-.86l2.52-10.41h7.94l-3.25,12.7a4.36,4.36,0,0,1-4.23,3.28H153.19Z" style="fill: rgb(38, 50, 56); transform-origin: 167.9px 327.05px 0px;" id="ele2o8bqs7kfj" class="animable"></path><g id="elozn89d6week"><path d="M153.19,330.33h17.87a1.14,1.14,0,0,0,1.09-.86l2.52-10.41h7.94l-3.25,12.7a4.36,4.36,0,0,1-4.23,3.28H153.19Z" style="fill: rgb(255, 255, 255); isolation: isolate; opacity: 0.4; transform-origin: 167.9px 327.05px 0px;" class="animable"></path></g><g id="elvvgcnt1nlrb"><rect x="151.33" y="298.95" width="4.77" height="68.94" style="fill: rgb(38, 50, 56); transform-origin: 153.715px 333.42px 0px; transform: rotate(-7.8deg);" class="animable"></rect></g><g id="elav14tu1f6qk"><rect x="121.79" y="298.95" width="4.77" height="68.94" style="fill: rgb(38, 50, 56); transform-origin: 124.175px 333.42px 0px; transform: rotate(-7.8deg);" class="animable"></rect></g><g id="elg7kdex6qg5v"><g style="isolation: isolate; opacity: 0.3; transform-origin: 153.715px 333.42px 0px;" class="animable"><g id="elvrlk5vfgy8o"><rect x="151.33" y="298.95" width="4.77" height="68.94" style="fill: rgb(255, 255, 255); transform-origin: 153.715px 333.42px 0px; transform: rotate(-7.8deg);" class="animable"></rect></g></g></g><g id="elfjnhlwu34og"><g style="isolation: isolate; opacity: 0.4; transform-origin: 124.175px 333.42px 0px;" class="animable"><g id="elrj5tfrd39g"><rect x="121.79" y="298.95" width="4.77" height="68.94" style="fill: rgb(255, 255, 255); transform-origin: 124.175px 333.42px 0px; transform: rotate(-7.8deg);" class="animable"></rect></g></g></g><polygon points="154.96 417.53 161.6 417.53 162.42 382.4 162.76 367.56 153.8 367.56 154.15 382.4 154.96 417.53" style="fill: rgb(38, 50, 56); transform-origin: 158.28px 392.545px 0px;" id="el2flalh3qltz" class="animable"></polygon><g id="ely053g950ip"><polygon points="154.96 417.53 161.6 417.53 162.42 382.4 162.76 367.56 153.8 367.56 154.15 382.4 154.96 417.53" style="fill: rgb(255, 255, 255); isolation: isolate; opacity: 0.4; transform-origin: 158.28px 392.545px 0px;" class="animable"></polygon></g><g id="elxh2ydb8vg4"><polygon points="162.76 367.56 162.42 382.81 154.15 382.81 153.8 367.56 162.76 367.56" style="isolation: isolate; opacity: 0.2; transform-origin: 158.28px 375.185px 0px;" class="animable"></polygon></g><polygon points="188.89 417.53 186 368.61 178.21 368.61 182.26 417.53 188.89 417.53" style="fill: rgb(38, 50, 56); transform-origin: 183.55px 393.07px 0px;" id="ele7jp2m38rtp" class="animable"></polygon><g id="el1vlujpsg70p"><polygon points="182.25 417.53 188.88 417.53 186.43 375.86 186 368.52 178.22 368.52 178.82 375.86 182.25 417.53" style="fill: rgb(255, 255, 255); isolation: isolate; opacity: 0.5; transform-origin: 183.55px 393.025px 0px;" class="animable"></polygon></g><g id="el8qppgdcgtqt"><polygon points="178.22 368.52 178.82 376.14 186.43 376.14 186 368.52 178.22 368.52" style="isolation: isolate; opacity: 0.2; transform-origin: 182.325px 372.33px 0px;" class="animable"></polygon></g><polygon points="134.3 417.53 138.35 368.61 130.56 368.61 127.67 417.53 134.3 417.53" style="fill: rgb(38, 50, 56); transform-origin: 133.01px 393.07px 0px;" id="elkcplmx3mqg" class="animable"></polygon><g id="el24rn1vflhgc"><polygon points="134.31 417.53 137.74 375.86 138.34 368.52 130.56 368.52 130.13 375.86 127.67 417.53 134.31 417.53" style="fill: rgb(255, 255, 255); isolation: isolate; opacity: 0.5; transform-origin: 133.005px 393.025px 0px;" class="animable"></polygon></g><g id="elfep3mwuheu"><polygon points="138.34 368.52 137.74 376.14 130.13 376.14 130.56 368.52 138.34 368.52" style="isolation: isolate; opacity: 0.2; transform-origin: 134.235px 372.33px 0px;" class="animable"></polygon></g><path d="M131.29,360.26h54a4.9,4.9,0,0,1,4.9,4.9v6.24a0,0,0,0,1,0,0H126.39a0,0,0,0,1,0,0v-6.24A4.9,4.9,0,0,1,131.29,360.26Z" style="fill: rgb(38, 50, 56); transform-origin: 158.29px 365.83px 0px;" id="eloi0tp22ribr" class="animable"></path><rect x="123.33" y="365.83" width="69.9" height="5.57" rx="1.97" style="fill: rgb(38, 50, 56); transform-origin: 158.28px 368.615px 0px;" id="elf1s07pgcz8" class="animable"></rect><g id="elw50coeo4bps"><rect x="123.33" y="365.83" width="69.9" height="5.57" rx="1.97" style="fill: rgb(255, 255, 255); isolation: isolate; opacity: 0.6; transform-origin: 158.28px 368.615px 0px;" class="animable"></rect></g><path d="M154.62,322.09H119a3.85,3.85,0,0,1-3.82-3.37L112.64,299a3,3,0,0,1,3-3.36h35.63a3.86,3.86,0,0,1,3.83,3.37l2.53,19.73A3,3,0,0,1,154.62,322.09Z" style="fill: rgb(38, 50, 56); transform-origin: 135.134px 308.865px 0px;" id="elzpbm120u5p" class="animable"></path><g id="elvot354ndxn"><path d="M154.62,322.09H119a3.85,3.85,0,0,1-3.82-3.37L112.64,299a3,3,0,0,1,3-3.36h35.63a3.86,3.86,0,0,1,3.83,3.37l2.53,19.73A3,3,0,0,1,154.62,322.09Z" style="fill: rgb(255, 255, 255); isolation: isolate; opacity: 0.6; transform-origin: 135.134px 308.865px 0px;" class="animable"></path></g><g id="freepik--group--inject-1" style="transform-origin: 172.28px 334.946px 0px;" class="animable"><path d="M160.75,252.88s-7.92-.21-12.41,2-10.55,11-5.67,19.36-.89,11.67.14,14.82,5.16,4.72,10.1,1.43c0,0,9.52,3.49,14.05,1.3s4.06-4.34,4.06-4.34,3.23,1.91,6.1-2S175.67,254.68,160.75,252.88Z" style="fill: rgb(38, 50, 56); transform-origin: 159.408px 272.693px 0px;" id="elyg2pk086po" class="animable"></path><path d="M203.34,311l-1.85-.79a2.35,2.35,0,0,0-2.14.17l-3,1.85a4.34,4.34,0,0,0-2.07,3.43l-.06.88c3,1.51,7.33.94,7.33.94l1.25,0a1.94,1.94,0,0,0,2-2l0-2.49A2.22,2.22,0,0,0,203.34,311Z" style="fill: rgb(235, 179, 118); transform-origin: 199.51px 313.807px 0px;" id="el9nv8w6vqjqb" class="animable"></path><g id="eltn4w5ns1jem"><path d="M203.34,311l-1.85-.79a2.35,2.35,0,0,0-2.14.17l-3,1.85a4.34,4.34,0,0,0-2.07,3.43l-.06.88c3,1.51,7.33.94,7.33.94l1.25,0a1.94,1.94,0,0,0,2-2l0-2.49A2.22,2.22,0,0,0,203.34,311Z" style="isolation: isolate; opacity: 0.1; transform-origin: 199.51px 313.807px 0px;" class="animable"></path></g><path d="M173.4,298.34l.44.8.52.89c.36.6.74,1.2,1.14,1.78a40.39,40.39,0,0,0,2.55,3.38,33.2,33.2,0,0,0,2.89,3,30.48,30.48,0,0,0,3.22,2.57l-.71-.33a15,15,0,0,0,3,.82c1.12.2,2.33.37,3.56.49s2.47.24,3.73.33l3.79.26h.06a2,2,0,0,1,.45,4c-1.34.4-2.63.68-4,.95s-2.68.45-4.05.59a34.54,34.54,0,0,1-4.23.17,18.8,18.8,0,0,1-4.66-.63,2.85,2.85,0,0,1-.51-.2l-.2-.12a31.11,31.11,0,0,1-4.49-3,31.93,31.93,0,0,1-3.91-3.61,37,37,0,0,1-3.3-4.1c-.49-.73-1-1.46-1.42-2.22-.22-.39-.45-.77-.66-1.17s-.39-.77-.65-1.31a4.09,4.09,0,0,1,7.27-3.72Z" style="fill: rgb(233, 179, 118); transform-origin: 182.72px 306.993px 0px;" id="elj2o5llqy5cc" class="animable"></path><g id="elez6d4vwkl8a"><path d="M173.4,298.34l.44.8.52.89c.36.6.74,1.2,1.14,1.78a40.39,40.39,0,0,0,2.55,3.38,33.2,33.2,0,0,0,2.89,3,30.48,30.48,0,0,0,3.22,2.57l-.71-.33a15,15,0,0,0,3,.82c1.12.2,2.33.37,3.56.49s2.47.24,3.73.33l3.79.26h.06a2,2,0,0,1,.45,4c-1.34.4-2.63.68-4,.95s-2.68.45-4.05.59a34.54,34.54,0,0,1-4.23.17,18.8,18.8,0,0,1-4.66-.63,2.85,2.85,0,0,1-.51-.2l-.2-.12a31.11,31.11,0,0,1-4.49-3,31.93,31.93,0,0,1-3.91-3.61,37,37,0,0,1-3.3-4.1c-.49-.73-1-1.46-1.42-2.22-.22-.39-.45-.77-.66-1.17s-.39-.77-.65-1.31a4.09,4.09,0,0,1,7.27-3.72Z" style="isolation: isolate; opacity: 0.1; transform-origin: 182.72px 306.993px 0px;" class="animable"></path></g><path d="M166.58,290.26c6.58-5.12,12.31,8.7,13.35,14l-8.11,7.58S153.15,300.73,166.58,290.26Z" style="fill: rgb(144, 202, 249); transform-origin: 170.826px 300.491px 0px;" id="elop976is3ee" class="animable"></path><polygon points="179.93 304.23 181.18 305.01 171.98 312.98 171.82 311.81 179.93 304.23" style="fill: rgb(144, 202, 249); transform-origin: 176.5px 308.605px 0px;" id="el8w38231etl6" class="animable"></polygon><g id="elen1svwf1ius"><polygon points="179.93 304.23 181.18 305.01 171.98 312.98 171.82 311.81 179.93 304.23" style="fill: rgb(255, 255, 255); opacity: 0.6; transform-origin: 176.5px 308.605px 0px;" class="animable"></polygon></g><g id="el1mdg1t9as6u"><path d="M169.3,298.18s6.67,5.82,7.82,10.35L172,313l-9.27-4.57Z" style="isolation: isolate; opacity: 0.2; transform-origin: 169.925px 305.59px 0px;" class="animable"></path></g><path d="M209.36,365.83c1.9,3.91-41.1,5.57-41.1,5.57s2.92-12.17,15.88-14.06S206.16,359.23,209.36,365.83Z" style="fill: rgb(144, 202, 249); transform-origin: 188.841px 364.127px 0px;" id="elagn0dsc6pae" class="animable"></path><g id="el4qpbx673a0b"><path d="M209.36,365.83c1.9,3.91-41.1,5.57-41.1,5.57s2.92-12.17,15.88-14.06S206.16,359.23,209.36,365.83Z" style="isolation: isolate; opacity: 0.2; transform-origin: 188.841px 364.127px 0px;" class="animable"></path></g><path d="M193.86,412.38l-5.48-.6s6-36.41,3.63-40.49c-2-3.51-12.16-4.25-26.5-5.09l-8.46-.48c-18.86-1.15,20.23-24.86,20.23-24.86S199.93,349,206,359.64C211.33,368.94,193.86,412.38,193.86,412.38Z" style="fill: rgb(235, 179, 118); transform-origin: 179.46px 376.62px 0px;" id="eled60ap8ges" class="animable"></path><g id="el9ym0sdqaey7"><path d="M193.86,412.38l-5.48-.6s6-36.41,3.63-40.49c-2-3.51-12.16-4.25-26.5-5.09l-8.46-.48c-18.86-1.15,20.23-24.86,20.23-24.86S199.93,349,206,359.64C211.33,368.94,193.86,412.38,193.86,412.38Z" style="isolation: isolate; opacity: 0.1; transform-origin: 179.46px 376.62px 0px;" class="animable"></path></g><path d="M195.16,410.62l-7-.45a.46.46,0,0,0-.5.4h0l-.81,5.6a1.07,1.07,0,0,0,1,1.16c2.41.11,3.57,0,6.6.21a56.86,56.86,0,0,0,8.09.26c2.59-.25,2.48-2.81,1.37-2.94a15.92,15.92,0,0,1-7.65-3.81A1.58,1.58,0,0,0,195.16,410.62Z" style="fill: rgb(38, 50, 56); transform-origin: 195.75px 414.006px 0px;" id="el34nv9b4k98b" class="animable"></path><path d="M197.25,411.85a7,7,0,0,1-1.64-.34.14.14,0,0,1-.1-.12.21.21,0,0,1,.08-.15c.21-.13,2.13-1.25,2.86-.9a.52.52,0,0,1,.29.45.83.83,0,0,1-.28.82A1.68,1.68,0,0,1,197.25,411.85Zm1.06-1.21c-.39-.19-1.49.28-2.27.71,1.09.3,1.91.31,2.24,0a.56.56,0,0,0,.17-.53.24.24,0,0,0-.14-.22Z" style="fill: rgb(144, 202, 249); transform-origin: 197.135px 411.075px 0px;" id="elskpa8rc93z" class="animable"></path><path d="M195.64,411.52h-.06a.16.16,0,0,1-.07-.12s.07-1.94.77-2.53a.79.79,0,0,1,.65-.17.53.53,0,0,1,.48.49c.06.71-1,2-1.69,2.34A.12.12,0,0,1,195.64,411.52Zm1.15-2.51a.41.41,0,0,0-.33.12,3.53,3.53,0,0,0-.63,2,3.34,3.34,0,0,0,1.28-1.88c0-.09,0-.2-.25-.24Z" style="fill: rgb(144, 202, 249); transform-origin: 196.461px 410.11px 0px;" id="elarhr3ieeg8" class="animable"></path><path d="M184.33,360.49C183,354.19,173.24,344,165.1,342.4L155,365.77c11.57.55,15.23,4.43,15.52,5.64,1.36,5.69-1.22,41-1.22,41h5.83S187.47,375.15,184.33,360.49Z" style="fill: rgb(235, 179, 118); transform-origin: 169.921px 377.405px 0px;" id="elbpnl9tac0f4" class="animable"></path><path d="M175.56,410.62l-7.07-.45a.43.43,0,0,0-.48.4h0l-.47,5.6a1.16,1.16,0,0,0,1.06,1.16c2.41.11,3.57,0,6.61.21a57.25,57.25,0,0,0,8.11.26c2.57-.25,2.3-2.81,1.18-2.94a17.16,17.16,0,0,1-7.88-3.81A1.7,1.7,0,0,0,175.56,410.62Z" style="fill: rgb(38, 50, 56); transform-origin: 176.428px 414.005px 0px;" id="elp65ff1my38" class="animable"></path><path d="M177.73,411.85a7.31,7.31,0,0,1-1.66-.34.14.14,0,0,1-.11-.12.19.19,0,0,1,.07-.15c.21-.13,2.05-1.25,2.81-.9a.56.56,0,0,1,.31.45.8.8,0,0,1-.22.82A1.64,1.64,0,0,1,177.73,411.85Zm1-1.21c-.41-.19-1.48.28-2.23.71,1.11.3,1.93.31,2.24,0a.55.55,0,0,0,.14-.53.29.29,0,0,0-.15-.22Z" style="fill: rgb(144, 202, 249); transform-origin: 177.573px 411.075px 0px;" id="elhiadw0phojr" class="animable"></path><path d="M176.1,411.52H176a.14.14,0,0,1-.07-.12s-.06-1.94.61-2.53a.74.74,0,0,1,.64-.17.57.57,0,0,1,.51.49c.1.71-.91,2-1.55,2.34A.12.12,0,0,1,176.1,411.52Zm1-2.51a.41.41,0,0,0-.32.12c-.4.35-.49,1.41-.51,2a3.06,3.06,0,0,0,1.17-1.88c0-.09-.05-.2-.26-.24Z" style="fill: rgb(144, 202, 249); transform-origin: 176.813px 410.107px 0px;" id="elgvvp6shnhtd" class="animable"></path><path d="M175.43,300.3c-.41,3-.89,6.84-1.36,10.81s-1,8.3-1.35,11.68c-.47,4.17-.78,7.1-.78,7.1l-33.6.19s-1.26-25.13,1.73-31.6,7.83-15.33,28.78-10.21C168.85,288.27,176.79,290.51,175.43,300.3Z" style="fill: rgb(144, 202, 249); transform-origin: 156.832px 308.411px 0px;" id="el3c263dqetg4" class="animable"></path><path d="M194.49,310.24l-1.85-.78a2.32,2.32,0,0,0-2.14.16l-3,1.86a4.34,4.34,0,0,0-2.07,3.43l-.06.87c3,1.51,7.33.94,7.33.94l1.25,0a2,2,0,0,0,2-2l0-2.49A2.25,2.25,0,0,0,194.49,310.24Z" style="fill: rgb(235, 179, 118); transform-origin: 190.66px 313.048px 0px;" id="ela3q8dhbttdf" class="animable"></path><path d="M138.34,330.08s-5.92,21.56-3.23,29.07,33.15,12.25,33.15,12.25,13.08-7.71,26.3-7.87,15.59,3.14,15.59,3.14-.16-7.91-5.89-13.45-29.79-16.7-29.79-16.7l-2.53-6.63Z" style="fill: rgb(144, 202, 249); transform-origin: 172.28px 350.645px 0px;" id="el7400v24yxfw" class="animable"></path><path d="M155.86,285.47l8.75,1.28s6.93,3.27,6.37,7-6.37,0-6.37,0,0,5.34-6.35,4.25-7.48-10.31-7.48-10.31A10.1,10.1,0,0,1,155.86,285.47Z" style="fill: rgb(144, 202, 249); transform-origin: 160.896px 291.808px 0px;" id="eleckjoqi0ht8" class="animable"></path><g id="el0eanqovei775"><path d="M155.86,285.47l8.75,1.28s6.93,3.27,6.37,7-6.37,0-6.37,0,0,5.34-6.35,4.25-7.48-10.31-7.48-10.31A10.1,10.1,0,0,1,155.86,285.47Z" style="fill: rgb(255, 255, 255); opacity: 0.6; transform-origin: 160.896px 291.808px 0px;" class="animable"></path></g><path d="M157,274.18a36.71,36.71,0,0,1-.3,7.15,12.62,12.62,0,0,1-1.45,4.55s3,3.39,5.83,4.3l3,2.65.06-3.28s0-.16,0-.46c0-1.27.45-5.22,4.15-6.41C173.41,281,157,274.18,157,274.18Z" style="fill: rgb(235, 179, 118); transform-origin: 162.265px 283.505px 0px;" id="elm1uj71vhyz" class="animable"></path><g id="elbg0s8l6upcb"><path d="M157,274.18a36.71,36.71,0,0,1-.3,7.15c1.79,3.22,4.18,6.34,7.46,7.76,0-1.27.45-5.22,4.15-6.41C173.41,281,157,274.18,157,274.18Z" style="isolation: isolate; opacity: 0.2; transform-origin: 162.996px 281.635px 0px;" class="animable"></path></g><path d="M171.86,257s4.6,3.81,2.68,9.51-9.69-6-9.69-6Z" style="fill: rgb(38, 50, 56); transform-origin: 169.929px 262.538px 0px;" id="elsx4099j7srl" class="animable"></path><path d="M149.53,268.82c2.33,7.63,3.27,12.21,8.58,15.15,8,4.44,17.95-1.61,18.23-9.83.29-7.41-3.61-18.62-12.86-19.72S147.19,261.2,149.53,268.82Z" style="fill: rgb(235, 179, 118); transform-origin: 162.716px 269.894px 0px;" id="elcqlsbwa0lg8" class="animable"></path><path d="M165.11,264.48a.45.45,0,0,0,.07-.25.42.42,0,0,0-.47-.35A4,4,0,0,0,161.6,266a.41.41,0,0,0,.2.55h0a.43.43,0,0,0,.54-.2h0a3.23,3.23,0,0,1,2.52-1.64A.43.43,0,0,0,165.11,264.48Z" style="fill: rgb(38, 50, 56); transform-origin: 163.37px 265.228px 0px;" id="elnkr1hvyq2l" class="animable"></path><path d="M174.49,263.64a.54.54,0,0,0,.21-.16.43.43,0,0,0-.18-.56,4.06,4.06,0,0,0-3.77-.12.41.41,0,0,0-.16.56h0a.43.43,0,0,0,.56.16h0a3.25,3.25,0,0,1,3,.16A.44.44,0,0,0,174.49,263.64Z" style="fill: rgb(38, 50, 56); transform-origin: 172.639px 263.046px 0px;" id="elmby3mrw4gyd" class="animable"></path><path d="M170.75,270.44,173,271.7s-.4.9-2.29,1.41Z" style="fill: rgb(213, 135, 69); transform-origin: 171.855px 271.775px 0px;" id="elp80xxbged8" class="animable"></path><path d="M156.76,275.05a10.55,10.55,0,0,0,1.74-6.42,11.94,11.94,0,0,0,6.11-6.24s8.65,1.51,8.08-4.58-8.89-7.23-17.66-4S145,265,146.9,270.24c0,0,.69,10.87,8.29,11.54C155.19,281.78,153.31,276.47,156.76,275.05Z" style="fill: rgb(38, 50, 56); transform-origin: 159.426px 266.914px 0px;" id="elqckz0n4w36" class="animable"></path><path d="M166.57,269.56c.07.81-.32,1.5-.86,1.54s-1-.58-1.09-1.39.32-1.5.86-1.54S166.51,268.75,166.57,269.56Z" style="fill: rgb(38, 50, 56); transform-origin: 165.593px 269.635px 0px;" id="elc5i0hxss23f" class="animable"></path><path d="M165.25,268.22l1.71-.83S166.2,269,165.25,268.22Z" style="fill: rgb(38, 50, 56); transform-origin: 166.105px 267.912px 0px;" id="elopzwhb9ueih" class="animable"></path><path d="M174.09,268.13c.06.81-.32,1.51-.86,1.55s-1-.58-1.1-1.39.32-1.5.86-1.55S174,267.32,174.09,268.13Z" style="fill: rgb(38, 50, 56); transform-origin: 173.106px 268.21px 0px;" id="elihb8a0ay5kq" class="animable"></path><path d="M172.77,266.8l1.71-.83S173.72,267.52,172.77,266.8Z" style="fill: rgb(38, 50, 56); transform-origin: 173.625px 266.48px 0px;" id="el2ecw4rba9b" class="animable"></path><path d="M170.85,277c-3.64,0-5-1.69-5-1.77a.37.37,0,0,1,.07-.52.36.36,0,0,1,.52.07h0s1.43,1.74,5.39,1.43a.38.38,0,0,1,.4.35.37.37,0,0,1-.34.4C171.5,276.94,171.16,277,170.85,277Z" style="fill: rgb(38, 50, 56); transform-origin: 169.002px 275.815px 0px;" id="eloq21iqp1f8" class="animable"></path><path d="M153.72,271.78s-2.7-14.92,8.55-19.65l-2.84-.08s-10.81,5.84-6.52,19.73Z" style="fill: rgb(144, 202, 249); transform-origin: 157.087px 261.915px 0px;" id="el40tbg93o9ec" class="animable"></path><path d="M157.15,272.67s-2.47-4.15-4.56-2.47-.67,9,2.7,8.51S159,274.82,157.15,272.67Z" style="fill: rgb(235, 179, 118); transform-origin: 154.938px 274.267px 0px;" id="elxl6y8ewsswg" class="animable"></path><polygon points="138.26 328.11 172.13 328.11 172.28 330.78 137.83 332.05 138.26 328.11" style="fill: rgb(144, 202, 249); transform-origin: 155.055px 330.08px 0px;" id="elya0lwobvz" class="animable"></polygon><g id="eldjqk3g49byg"><polygon points="138.26 328.11 172.13 328.11 172.28 330.78 137.83 332.05 138.26 328.11" style="fill: rgb(255, 255, 255); opacity: 0.6; transform-origin: 155.055px 330.08px 0px;" class="animable"></polygon></g><path d="M164.61,337.51a.49.49,0,0,1-.4-.8c.61-.78,1.11-3.19,1.45-5.31-1.1,1.89-2.68,3.93-4.24,3.5a2.29,2.29,0,0,1-1.68-2.41c.11-1.72,1.94-3.79,6.73-4.48h0c5-.72,6.27,1.4,6.56,2.34a2.71,2.71,0,0,1-.95,3.14c-1,.5-2.86-1.18-4.42-2.91a29.6,29.6,0,0,0,3.26,5.15.5.5,0,0,1-.08.7.49.49,0,0,1-.7-.08,29.34,29.34,0,0,1-3.41-5.39c-.32,2.22-.9,5.29-1.74,6.36A.48.48,0,0,1,164.61,337.51Zm1.1-8.36c-3.53.71-4.89,2.24-5,3.4a1.29,1.29,0,0,0,.95,1.38C162.79,334.25,164.57,331.54,165.71,329.15Zm1.81-.25c1.81,2.12,3.66,3.78,4.15,3.69a1.87,1.87,0,0,0,.42-1.94C171.68,329.32,170,328.7,167.52,328.9Z" style="fill: rgb(255, 255, 255); transform-origin: 166.466px 332.687px 0px;" id="elvuatouondfm" class="animable"></path><g id="elpvq574qwei"><path d="M174.07,311.11c-.49,4.1-1,8.3-1.35,11.68C154.26,321.86,144,304,144,304s5.27-5.81,10.15-5,8.85,7,8.85,7l-.28,1.45s.79,1.31,4.25,2.76A20.59,20.59,0,0,0,174.07,311.11Z" style="isolation: isolate; opacity: 0.2; transform-origin: 159.035px 310.856px 0px;" class="animable"></path></g><path d="M152.7,299.57c4.56,4.74,9.68,9.47,15.47,12.66l-.74-.25a22.38,22.38,0,0,0,4.42.42c4.83.06,11-.33,15.85-.53a2,2,0,0,1,.7,4,88.07,88.07,0,0,1-16.27,3.38c-2.29.15-4.83.47-7.08-.32A54.65,54.65,0,0,1,146.56,305c-3.39-4.12,2.47-9.28,6.14-5.4Z" style="fill: rgb(233, 179, 118); transform-origin: 167.811px 308.835px 0px;" id="eley1rxr40gfe" class="animable"></path><path d="M145.57,292.83c6.05-5.74,13.11,7.44,14.67,12.59l-7.33,8.35S133.24,304.57,145.57,292.83Z" style="fill: rgb(144, 202, 249); transform-origin: 150.874px 302.59px 0px;" id="elwewt1ll7gcl" class="animable"></path><polygon points="160.24 305.42 161.56 306.08 153.19 314.91 152.91 313.77 160.24 305.42" style="fill: rgb(144, 202, 249); transform-origin: 157.235px 310.165px 0px;" id="elrea2zn9cko" class="animable"></polygon><g id="eloeodq1htcd"><polygon points="160.24 305.42 161.56 306.08 153.19 314.91 152.91 313.77 160.24 305.42" style="fill: rgb(255, 255, 255); opacity: 0.6; transform-origin: 157.235px 310.165px 0px;" class="animable"></polygon></g></g><path d="M207.53,314.42c-2.35-.08-8.21.36-8.21.36l-2.72-1s-13.71,2.13-15.25,2-5.75,1.54-5.75,1.54l30.26,1.33Z" style="fill: rgb(144, 202, 249); transform-origin: 191.565px 316.215px 0px;" id="elk5tyocyr95n" class="animable"></path><g id="elaqgxu02mnp"><path d="M207.53,314.42c-2.35-.08-8.21.36-8.21.36l-2.72-1s-13.71,2.13-15.25,2-5.75,1.54-5.75,1.54l30.26,1.33Z" style="fill: rgb(255, 255, 255); opacity: 0.9; transform-origin: 191.565px 316.215px 0px;" class="animable"></path></g><path d="M214.11,317.34s-5.28-5-10.19-1.91c0,0-6.56-3.75-13.29,0L181.68,317Z" style="fill: rgb(144, 202, 249); transform-origin: 197.895px 315.552px 0px;" id="el7q3q96n6idc" class="animable"></path><g id="elvzpsnc0xpth"><path d="M214.11,317.34s-5.28-5-10.19-1.91c0,0-6.56-3.75-13.29,0L181.68,317Z" style="fill: rgb(255, 255, 255); opacity: 0.7; transform-origin: 197.895px 315.552px 0px;" class="animable"></path></g><rect x="158.46" y="317.02" width="69.07" height="4.07" rx="1.4" style="fill: rgb(38, 50, 56); transform-origin: 192.995px 319.055px 0px;" id="elggnjnaskuw" class="animable"></rect><g id="elc297b06ztxo"><path d="M227.53,318.38v1.35a1.36,1.36,0,0,1-1.37,1.36H159.82a1.36,1.36,0,0,1-1.36-1.36v-1.35a1.36,1.36,0,0,1,1.36-1.36h66.34A1.36,1.36,0,0,1,227.53,318.38Z" style="fill: rgb(255, 255, 255); isolation: isolate; opacity: 0.6; transform-origin: 192.995px 319.055px 0px;" class="animable"></path></g><g id="elmavs1mivhl"><path d="M227.53,318.38v1.35a1.36,1.36,0,0,1-1.37,1.36h-32a1.36,1.36,0,0,1-1.37-1.36v-1.35a1.36,1.36,0,0,1,1.37-1.36h32A1.36,1.36,0,0,1,227.53,318.38Z" style="fill: rgb(255, 255, 255); isolation: isolate; opacity: 0.3; transform-origin: 210.16px 319.055px 0px;" class="animable"></path></g></g><g id="freepik--Plant--inject-1" style="transform-origin: 101.265px 341.807px 0px;" class="animable animator-active"><path d="M99.62,383.43s-1.41-10.35-8-11.49-4.63-6.13-6.35-8.07-6.23,3.78-2.37,9.32.7,3.79,2.37,8.94S100.22,392,99.62,383.43Z" style="fill: rgb(38, 50, 56); transform-origin: 90.5103px 375.821px 0px;" id="el2m4aa6346o4" class="animable"></path><g id="elpi3k8khalre"><path d="M99.62,383.43s-1.41-10.35-8-11.49-4.63-6.13-6.35-8.07-6.23,3.78-2.37,9.32.7,3.79,2.37,8.94S100.22,392,99.62,383.43Z" style="fill: rgb(255, 255, 255); isolation: isolate; opacity: 0.2; transform-origin: 90.5103px 375.821px 0px;" class="animable"></path></g><path d="M97.42,390.42a.38.38,0,0,1-.35-.24c0-.11-4.21-11.22-.2-28.08a72.08,72.08,0,0,1,5.19-14c3.9-8.46,7-15.15,2.2-28.2-1.5-4.12-3.07-8-4.59-11.7-5.68-14-10.17-25-5.35-35.41a.38.38,0,0,1,.68.32c-4.69,10.1-.25,21,5.36,34.8,1.52,3.74,3.09,7.6,4.61,11.73,4.87,13.34,1.58,20.5-2.23,28.78a69.72,69.72,0,0,0-5.14,13.81c-3.95,16.62.13,27.53.17,27.64a.37.37,0,0,1-.22.48A.31.31,0,0,1,97.42,390.42Z" style="fill: rgb(38, 50, 56); transform-origin: 99.8449px 331.521px 0px;" id="el1gy8l475slm" class="animable"></path><path d="M95.52,388.08s-4.28-6.45,1.9-9.76,7.41-.65,11.23-3,6.72-8.16,7.37-4.47-3.76,5.81-2.2,7.5S103.43,391,95.52,388.08Z" style="fill: rgb(38, 50, 56); transform-origin: 105.081px 379.113px 0px;" id="elypv4j3v1r2" class="animable"></path><path d="M92.42,278.21s-3.14-13,6.33-12.47S96.86,277.21,92.42,278.21Z" style="fill: rgb(38, 50, 56); transform-origin: 97.1678px 271.967px 0px;" id="eluihn90ypvi" class="animable"></path><path d="M99.85,288.58s3.74-11.26,10.26-8.3S106.52,289.33,99.85,288.58Z" style="fill: rgb(38, 50, 56); transform-origin: 106.032px 284.214px 0px;" id="el85twibpu3c5" class="animable"></path><path d="M88.39,288.66s1.75-9.08-5.35-9.83S78.46,286.38,88.39,288.66Z" style="fill: rgb(38, 50, 56); transform-origin: 83.786px 283.721px 0px;" id="el3kzy0ukb71u" class="animable"></path><path d="M91.63,307.74s-8.87-9.28-12.81-3.22S85.41,312.75,91.63,307.74Z" style="fill: rgb(38, 50, 56); transform-origin: 84.7952px 306.494px 0px;" id="elubmk1kse0ea" class="animable"></path><path d="M108.65,307.58s2.93-14,10.3-8.94S115.26,309.53,108.65,307.58Z" style="fill: rgb(38, 50, 56); transform-origin: 115.02px 302.751px 0px;" id="el1uozrep1obh" class="animable"></path><path d="M113.82,328.38s-4.55-14.75,5.91-12.29S121.57,325.51,113.82,328.38Z" style="fill: rgb(38, 50, 56); transform-origin: 118.702px 322.097px 0px;" id="elcoozz4j8qg" class="animable"></path><path d="M97.17,332.18s-8.1-11.25-15.2-8.46S79.62,337.43,97.17,332.18Z" style="fill: rgb(38, 50, 56); transform-origin: 87.9873px 328.432px 0px;" id="elx41qi059uz" class="animable"></path><path d="M103.41,356.16s9-16.3,15.29-10.06S113.24,360,103.41,356.16Z" style="fill: rgb(38, 50, 56); transform-origin: 111.94px 350.935px 0px;" id="elr2jrbwb649r" class="animable"></path><path d="M92.42,354.29s3.07-13-4.56-12.51S81.57,350.41,92.42,354.29Z" style="fill: rgb(38, 50, 56); transform-origin: 88.0318px 348.028px 0px;" id="el2uwwp0z15jm" class="animable"></path><g id="eldcs0aghzh5v"><g style="isolation: isolate; opacity: 0.2; transform-origin: 101.265px 311.458px 0px;" class="animable"><path d="M92.42,278.21s-3.14-13,6.33-12.47S96.86,277.21,92.42,278.21Z" style="fill: rgb(255, 255, 255); transform-origin: 97.1678px 271.967px 0px;" id="elpzk2os5uqfp" class="animable"></path><path d="M99.85,288.58s3.74-11.26,10.26-8.3S106.52,289.33,99.85,288.58Z" style="fill: rgb(255, 255, 255); transform-origin: 106.032px 284.214px 0px;" id="elzfvom5rci6i" class="animable"></path><path d="M88.39,288.66s1.75-9.08-5.35-9.83S78.46,286.38,88.39,288.66Z" style="fill: rgb(255, 255, 255); transform-origin: 83.786px 283.721px 0px;" id="elknwnehureu" class="animable"></path><path d="M91.63,307.74s-8.87-9.28-12.81-3.22S85.41,312.75,91.63,307.74Z" style="fill: rgb(255, 255, 255); transform-origin: 84.7952px 306.494px 0px;" id="elgpwk6k82z6u" class="animable"></path><path d="M108.65,307.58s2.93-14,10.3-8.94S115.26,309.53,108.65,307.58Z" style="fill: rgb(255, 255, 255); transform-origin: 115.02px 302.751px 0px;" id="elu4uv2cqilx" class="animable"></path><path d="M113.82,328.38s-4.55-14.75,5.91-12.29S121.57,325.51,113.82,328.38Z" style="fill: rgb(255, 255, 255); transform-origin: 118.702px 322.097px 0px;" id="eltksbgezyir" class="animable"></path><path d="M97.17,332.18s-8.1-11.25-15.2-8.46S79.62,337.43,97.17,332.18Z" style="fill: rgb(255, 255, 255); transform-origin: 87.9873px 328.432px 0px;" id="elho6ieuqybie" class="animable"></path><path d="M103.41,356.16s9-16.3,15.29-10.06S113.24,360,103.41,356.16Z" style="fill: rgb(255, 255, 255); transform-origin: 111.94px 350.935px 0px;" id="eltkkjl6wglj" class="animable"></path><path d="M92.42,354.29s3.07-13-4.56-12.51S81.57,350.41,92.42,354.29Z" style="fill: rgb(255, 255, 255); transform-origin: 88.0318px 348.028px 0px;" id="el0rrw44u5uje" class="animable"></path></g></g><path d="M95.16,295.77a.39.39,0,0,1-.21-.06c-5.32-3.57-8.86-9.8-9-10.06a.37.37,0,1,1,.65-.37c0,.07,3.46,6.08,8.46,9.59.91-1.41,4.48-6.76,7.2-8.11a.38.38,0,0,1,.5.17.37.37,0,0,1-.17.5c-2.88,1.43-7.06,8.1-7.1,8.16a.37.37,0,0,1-.24.17Z" style="fill: rgb(38, 50, 56); transform-origin: 94.3503px 290.43px 0px;" id="eltih8xydoy2" class="animable"></path><path d="M102.42,314a.39.39,0,0,1-.25-.1c-7.5-6.68-17.72-7.24-17.82-7.24a.38.38,0,1,1,0-.75c.1,0,10.31.57,18,7.16,1.11-1.5,5.74-7.45,11.31-10.16a.38.38,0,0,1,.32.68c-6.08,2.95-11.21,10.17-11.26,10.25a.37.37,0,0,1-.26.15Z" style="fill: rgb(38, 50, 56); transform-origin: 99.0287px 308.447px 0px;" id="eldqmt7e944sj" class="animable"></path><path d="M106.08,337.65a.36.36,0,0,1-.22-.07c-.11-.07-11.22-7.7-19.63-8.54a.38.38,0,1,1,.07-.75c8.06.81,18.14,7.42,19.77,8.53,5.8-4.1,11-15,11.07-15.12a.38.38,0,0,1,.5-.18.37.37,0,0,1,.18.5c-.22.47-5.49,11.47-11.53,15.57A.42.42,0,0,1,106.08,337.65Z" style="fill: rgb(38, 50, 56); transform-origin: 101.846px 329.568px 0px;" id="el95nhhcemon5" class="animable"></path><path d="M97.42,361.09a.39.39,0,0,1-.21-.06c-4.18-2.86-9-14.3-9.16-14.78a.37.37,0,0,1,.69-.29c.05.11,4.69,11.22,8.63,14.26A26,26,0,0,1,110.81,353a.38.38,0,0,1,.15.74A25.2,25.2,0,0,0,97.71,361,.37.37,0,0,1,97.42,361.09Z" style="fill: rgb(38, 50, 56); transform-origin: 99.6216px 353.412px 0px;" id="elxhj30cwr17" class="animable"></path><path d="M96.18,386.54s-3.67-5.84-7.81-6.67-5.93-5.6-7.46-2.73S83.59,389.53,96.18,386.54Z" style="fill: rgb(38, 50, 56); transform-origin: 88.3951px 381.673px 0px;" id="elrzetsj705gs" class="animable"></path><polygon points="78.99 385.62 80.23 396.33 80.39 397.74 80.91 402.23 81.29 405.4 81.53 407.47 82.73 417.89 113.74 417.89 114.95 407.47 115.19 405.4 115.56 402.23 116.08 397.74 116.24 396.33 117.48 385.62 78.99 385.62" style="fill: rgb(144, 202, 249); transform-origin: 98.235px 401.755px 0px;" id="el5gw514w8qom" class="animable"></polygon><g id="eljl68av44gqo"><polygon points="80.91 402.23 81.29 405.4 115.19 405.4 115.56 402.23 80.91 402.23" style="fill: rgb(255, 255, 255); isolation: isolate; opacity: 0.4; transform-origin: 98.235px 403.815px 0px;" class="animable"></polygon></g><g id="el9geuhfrcepp"><polygon points="81.53 407.47 82.73 417.89 113.74 417.89 114.95 407.47 81.53 407.47" style="fill: rgb(255, 255, 255); isolation: isolate; opacity: 0.4; transform-origin: 98.24px 412.68px 0px;" class="animable"></polygon></g><g id="el3py2jtor19j"><polygon points="80.23 396.33 80.39 397.74 116.08 397.74 116.24 396.33 80.23 396.33" style="fill: rgb(255, 255, 255); isolation: isolate; opacity: 0.4; transform-origin: 98.235px 397.035px 0px;" class="animable"></polygon></g></g><defs>     <filter id="active" height="200%">         <feMorphology in="SourceAlpha" result="DILATED" operator="dilate" radius="2"></feMorphology>                <feFlood flood-color="#32DFEC" flood-opacity="1" result="PINK"></feFlood>        <feComposite in="PINK" in2="DILATED" operator="in" result="OUTLINE"></feComposite>        <feMerge>            <feMergeNode in="OUTLINE"></feMergeNode>            <feMergeNode in="SourceGraphic"></feMergeNode>        </feMerge>    </filter>    <filter id="hover" height="200%">        <feMorphology in="SourceAlpha" result="DILATED" operator="dilate" radius="2"></feMorphology>                <feFlood flood-color="#ff0000" flood-opacity="0.5" result="PINK"></feFlood>        <feComposite in="PINK" in2="DILATED" operator="in" result="OUTLINE"></feComposite>        <feMerge>            <feMergeNode in="OUTLINE"></feMergeNode>            <feMergeNode in="SourceGraphic"></feMergeNode>        </feMerge>            <feColorMatrix type="matrix" values="0   0   0   0   0                0   1   0   0   0                0   0   0   0   0                0   0   0   1   0 "></feColorMatrix>    </filter></defs></svg>