<svg xmlns="http://www.w3.org/2000/svg" xmlns:xlink="http://www.w3.org/1999/xlink" width="500" zoomAndPan="magnify" viewBox="0 0 375 374.999991" height="500" preserveAspectRatio="xMidYMid meet" version="1.0"><defs><clipPath id="id1"><path d="M 154.152344 157.15625 L 210.515625 157.15625 L 210.515625 248.066406 L 154.152344 248.066406 Z M 154.152344 157.15625 " clip-rule="nonzero"/></clipPath><clipPath id="id2"><path d="M 182 161 L 210.515625 161 L 210.515625 186 L 182 186 Z M 182 161 " clip-rule="nonzero"/></clipPath><clipPath id="id3"><path d="M 153 127 L 215.972656 127 L 215.972656 150 L 153 150 Z M 153 127 " clip-rule="nonzero"/></clipPath><clipPath id="id4"><path d="M 152.789062 126.933594 L 215.972656 126.933594 L 215.972656 150 L 152.789062 150 Z M 152.789062 126.933594 " clip-rule="nonzero"/></clipPath><clipPath id="id5"><path d="M 160 154 L 210 154 L 210 156.933594 L 160 156.933594 Z M 160 154 " clip-rule="nonzero"/></clipPath><clipPath id="id6"><path d="M 159 153 L 210 153 L 210 156.933594 L 159 156.933594 Z M 159 153 " clip-rule="nonzero"/></clipPath><clipPath id="id7"><path d="M 152.789062 155.773438 L 222.335938 155.773438 L 222.335938 236.226562 L 152.789062 236.226562 Z M 152.789062 155.773438 " clip-rule="nonzero"/></clipPath></defs><g clip-path="url(#id1)"><path fill="#d9d9d9" d="M 160.703125 157.148438 L 160.703125 175.792969 L 164.726562 175.792969 L 166.476562 171.433594 C 167.90625 167.875 171.363281 165.542969 175.207031 165.542969 L 186.582031 165.542969 C 186.582031 165.542969 186.582031 216.386719 186.582031 225.679688 C 186.582031 234.976562 183.871094 240.257812 177.75 240.257812 C 171.632812 240.257812 168.421875 234.386719 168.421875 225.679688 C 168.421875 220.617188 168.460938 217.210938 168.460938 217.210938 L 154.421875 217.230469 C 154.421875 223.398438 154.21875 225.1875 155.472656 230.589844 C 158.097656 241.902344 167.203125 248.046875 177.554688 248.046875 C 190.484375 248.046875 200.019531 239.0625 200.019531 223.117188 C 200.019531 219.460938 200.011719 185.898438 200.007812 171.71875 C 200.003906 167.910156 202.308594 164.492188 205.839844 163.046875 L 210.441406 161.164062 L 210.441406 157.148438 L 160.703125 157.148438 " fill-opacity="1" fill-rule="nonzero"/></g><g clip-path="url(#id2)"><path fill="#38b6ff" d="M 186.636719 161.210938 L 182.207031 165.542969 L 186.582031 165.542969 L 186.582031 185.015625 L 200.011719 171.617188 C 200.054688 167.851562 202.339844 164.480469 205.839844 163.046875 L 210.332031 161.210938 L 186.636719 161.210938 " fill-opacity="1" fill-rule="nonzero"/></g><g clip-path="url(#id3)"><path fill="#38b6ff" d="M 214.011719 133.828125 C 213.300781 133.828125 212.726562 134.402344 212.726562 135.109375 C 212.726562 135.433594 212.847656 135.726562 213.046875 135.953125 L 209.195312 141.546875 L 209.054688 141.75 C 209.054688 141.75 208.851562 142.101562 209.523438 138.992188 C 209.984375 136.859375 210.691406 134.863281 211.09375 133.824219 C 211.996094 133.746094 212.707031 132.992188 212.707031 132.070312 C 212.707031 131.101562 211.914062 130.3125 210.941406 130.3125 C 209.964844 130.3125 209.171875 131.101562 209.171875 132.070312 C 209.171875 132.714844 209.519531 133.277344 210.039062 133.582031 C 208.84375 135.15625 207.210938 137.269531 206.398438 138.179688 C 205.027344 139.71875 203.945312 141.054688 202.632812 141.636719 C 201.5625 142.109375 199.640625 142.175781 198.761719 140.617188 C 198.753906 140.609375 198.746094 140.597656 198.738281 140.589844 C 196.722656 138.304688 196.085938 133.414062 195.917969 131.613281 C 196.789062 131.363281 197.425781 130.566406 197.425781 129.621094 C 197.425781 128.476562 196.492188 127.550781 195.339844 127.550781 C 194.1875 127.550781 193.253906 128.476562 193.253906 129.621094 C 193.253906 130.316406 193.601562 130.933594 194.128906 131.308594 C 193.570312 132.441406 192.167969 134.996094 189.453125 138.457031 C 188.023438 140.28125 186.582031 141.023438 185.230469 141.101562 C 182.390625 141.546875 180.144531 138.863281 178.960938 137.34375 C 177.773438 135.820312 176.160156 133.125 175.210938 131.386719 C 175.804688 131.019531 176.203125 130.367188 176.203125 129.621094 C 176.203125 128.476562 175.269531 127.550781 174.117188 127.550781 C 172.96875 127.550781 172.035156 128.476562 172.035156 129.621094 C 172.035156 130.570312 172.675781 131.367188 173.550781 131.613281 C 173.441406 132.355469 173.222656 133.789062 173.035156 134.929688 C 172.902344 135.734375 172.445312 137.507812 171.714844 139.0625 C 170.980469 140.9375 169.355469 142.621094 167.488281 141.894531 C 165.621094 141.171875 163.636719 138.730469 162.671875 137.542969 C 161.96875 136.671875 160.34375 134.578125 159.222656 133.171875 C 159.859375 132.832031 160.292969 132.167969 160.292969 131.398438 C 160.292969 130.285156 159.386719 129.382812 158.265625 129.382812 C 157.148438 129.382812 156.242188 130.285156 156.242188 131.398438 C 156.242188 132.511719 157.148438 133.414062 158.265625 133.414062 C 158.328125 133.414062 158.386719 133.410156 158.445312 133.402344 C 158.523438 133.636719 158.691406 134.121094 159.046875 135.105469 C 159.679688 136.867188 160.488281 141.503906 160.488281 141.503906 C 160.574219 141.96875 160.453125 143.320312 160.453125 143.320312 C 160.453125 143.320312 159.167969 140.359375 158.644531 139.457031 C 158.269531 138.820312 157.085938 136.714844 156.324219 135.363281 C 156.503906 135.109375 156.613281 134.800781 156.613281 134.46875 C 156.613281 133.609375 155.910156 132.910156 155.046875 132.910156 C 154.183594 132.910156 153.484375 133.609375 153.484375 134.46875 C 153.484375 135.328125 154.183594 136.023438 155.046875 136.023438 C 155.214844 136.023438 155.371094 135.996094 155.519531 135.949219 C 155.707031 136.210938 155.949219 136.554688 156.28125 137.019531 C 157.40625 138.609375 159.304688 142.820312 160.5625 145.914062 C 161.164062 147.394531 161.617188 148.617188 161.765625 149.183594 L 208.0625 149.183594 C 208.0625 149.183594 208.0625 148.777344 208.632812 146.773438 C 208.707031 146.503906 208.863281 146.113281 209.074219 145.636719 C 209.25 145.234375 209.46875 144.773438 209.710938 144.277344 C 209.855469 143.980469 210.011719 143.667969 210.171875 143.351562 C 210.179688 143.328125 210.195312 143.304688 210.203125 143.28125 C 210.246094 143.195312 210.289062 143.113281 210.332031 143.027344 C 210.351562 142.988281 210.371094 142.949219 210.390625 142.914062 C 210.433594 142.832031 210.472656 142.753906 210.511719 142.675781 C 210.535156 142.628906 210.558594 142.585938 210.582031 142.542969 C 210.621094 142.464844 210.660156 142.386719 210.703125 142.304688 C 210.726562 142.261719 210.75 142.214844 210.773438 142.167969 C 210.8125 142.089844 210.851562 142.015625 210.894531 141.9375 C 210.921875 141.882812 210.949219 141.828125 210.976562 141.773438 C 211.011719 141.707031 211.050781 141.636719 211.085938 141.566406 C 211.121094 141.496094 211.160156 141.421875 211.199219 141.351562 C 211.25 141.25 211.304688 141.148438 211.359375 141.042969 C 211.398438 140.972656 211.4375 140.898438 211.476562 140.824219 C 211.503906 140.769531 211.53125 140.714844 211.5625 140.660156 C 211.601562 140.585938 211.640625 140.515625 211.675781 140.445312 C 211.703125 140.390625 211.730469 140.339844 211.757812 140.289062 C 211.800781 140.210938 211.839844 140.132812 211.882812 140.054688 C 211.90625 140.011719 211.929688 139.964844 211.953125 139.921875 C 211.996094 139.839844 212.042969 139.757812 212.085938 139.675781 C 212.105469 139.636719 212.128906 139.597656 212.148438 139.558594 C 212.199219 139.464844 212.25 139.371094 212.296875 139.28125 C 212.308594 139.257812 212.324219 139.230469 212.339844 139.203125 C 212.398438 139.09375 212.453125 138.988281 212.511719 138.882812 C 212.515625 138.875 212.523438 138.863281 212.527344 138.851562 C 212.65625 138.613281 212.78125 138.386719 212.898438 138.167969 C 212.90625 138.152344 212.914062 138.140625 212.921875 138.125 C 212.96875 138.035156 213.019531 137.949219 213.066406 137.863281 C 213.078125 137.835938 213.09375 137.8125 213.105469 137.785156 C 213.148438 137.707031 213.191406 137.632812 213.230469 137.558594 C 213.242188 137.535156 213.253906 137.515625 213.265625 137.496094 C 213.304688 137.421875 213.34375 137.351562 213.378906 137.285156 C 213.394531 137.261719 213.40625 137.238281 213.417969 137.214844 C 213.460938 137.132812 213.503906 137.054688 213.546875 136.980469 C 213.546875 136.980469 213.546875 136.976562 213.546875 136.976562 C 213.675781 136.746094 213.785156 136.546875 213.875 136.382812 C 213.921875 136.386719 213.964844 136.390625 214.011719 136.390625 C 214.722656 136.390625 215.296875 135.816406 215.296875 135.109375 C 215.296875 134.402344 214.722656 133.828125 214.011719 133.828125 " fill-opacity="1" fill-rule="nonzero"/></g><g clip-path="url(#id4)"><path fill="#ffffff" d="M 157.039062 135.363281 C 157.167969 135.085938 157.234375 134.78125 157.234375 134.46875 C 157.234375 134.222656 157.191406 133.988281 157.117188 133.769531 C 157.390625 133.898438 157.6875 133.984375 158 134.015625 C 158.101562 134.300781 158.246094 134.714844 158.460938 135.3125 C 158.824219 136.324219 159.257812 138.363281 159.550781 139.847656 C 159.410156 139.566406 159.28125 139.320312 159.179688 139.148438 C 158.828125 138.546875 157.773438 136.675781 157.039062 135.363281 Z M 195.339844 126.933594 C 193.847656 126.933594 192.632812 128.136719 192.632812 129.621094 C 192.632812 130.304688 192.898438 130.960938 193.359375 131.453125 C 192.683594 132.753906 191.332031 135.058594 188.964844 138.078125 C 187.773438 139.597656 186.503906 140.40625 185.191406 140.488281 C 185.171875 140.488281 185.152344 140.492188 185.132812 140.492188 C 184.957031 140.519531 184.777344 140.535156 184.601562 140.535156 C 182.496094 140.535156 180.746094 138.628906 179.453125 136.96875 C 178.429688 135.652344 177.007812 133.332031 176.007812 131.546875 C 176.527344 131.046875 176.824219 130.359375 176.824219 129.621094 C 176.824219 128.136719 175.609375 126.933594 174.117188 126.933594 C 172.625 126.933594 171.414062 128.136719 171.414062 129.621094 C 171.414062 130.632812 171.988281 131.546875 172.863281 132.003906 C 172.746094 132.792969 172.570312 133.914062 172.421875 134.832031 C 172.296875 135.609375 171.851562 137.308594 171.152344 138.800781 C 171.148438 138.8125 171.140625 138.824219 171.136719 138.835938 C 170.628906 140.136719 169.578125 141.453125 168.378906 141.453125 C 168.160156 141.453125 167.9375 141.40625 167.714844 141.320312 C 165.984375 140.648438 164.003906 138.199219 163.15625 137.15625 C 162.78125 136.695312 162.140625 135.878906 161.464844 135.015625 C 161.007812 134.429688 160.535156 133.832031 160.105469 133.289062 C 160.617188 132.800781 160.914062 132.121094 160.914062 131.398438 C 160.914062 129.949219 159.726562 128.765625 158.265625 128.765625 C 156.808594 128.765625 155.621094 129.949219 155.621094 131.398438 C 155.621094 131.769531 155.699219 132.121094 155.835938 132.441406 C 155.59375 132.347656 155.324219 132.292969 155.046875 132.292969 C 153.84375 132.292969 152.863281 133.269531 152.863281 134.46875 C 152.863281 135.664062 153.84375 136.640625 155.046875 136.640625 C 155.113281 136.640625 155.179688 136.636719 155.246094 136.632812 C 155.390625 136.835938 155.566406 137.082031 155.773438 137.375 C 156.828125 138.867188 158.695312 142.964844 159.988281 146.144531 C 160.582031 147.613281 161.023438 148.808594 161.167969 149.339844 C 161.242188 149.613281 161.484375 149.800781 161.765625 149.800781 L 208.0625 149.800781 C 208.234375 149.800781 208.402344 149.75 208.519531 149.625 C 208.632812 149.5 208.695312 149.359375 208.683594 149.191406 C 208.695312 149.105469 208.761719 148.585938 209.230469 146.941406 C 209.273438 146.785156 209.382812 146.472656 209.644531 145.882812 C 209.808594 145.507812 210.019531 145.054688 210.269531 144.542969 C 210.414062 144.25 210.566406 143.941406 210.726562 143.625 L 210.761719 143.554688 L 210.824219 143.433594 L 210.886719 143.304688 L 210.945312 143.191406 L 211.007812 143.066406 L 211.066406 142.953125 L 211.113281 142.863281 L 211.226562 142.636719 L 211.253906 142.585938 L 211.296875 142.503906 L 211.324219 142.449219 L 211.359375 142.382812 L 211.445312 142.222656 L 211.527344 142.058594 L 211.613281 141.894531 L 211.636719 141.851562 L 211.746094 141.636719 L 211.839844 141.460938 L 211.910156 141.328125 L 211.949219 141.257812 L 212.023438 141.113281 L 212.109375 140.949219 L 212.226562 140.730469 L 212.308594 140.574219 L 212.394531 140.410156 L 212.429688 140.34375 L 212.5 140.214844 L 212.601562 140.023438 L 212.632812 139.964844 L 212.699219 139.847656 L 212.816406 139.621094 L 212.84375 139.574219 L 212.882812 139.496094 L 212.960938 139.355469 L 213.058594 139.175781 L 213.078125 139.136719 C 213.203125 138.90625 213.328125 138.679688 213.445312 138.460938 L 213.453125 138.449219 L 213.503906 138.347656 L 213.609375 138.15625 L 213.644531 138.09375 L 213.664062 138.058594 L 213.777344 137.851562 L 213.808594 137.789062 L 213.84375 137.726562 L 213.925781 137.578125 L 213.960938 137.511719 L 213.984375 137.476562 L 214.089844 137.277344 C 214.09375 137.273438 214.09375 137.269531 214.097656 137.265625 L 214.128906 137.210938 L 214.246094 136.992188 C 215.1875 136.875 215.917969 136.074219 215.917969 135.109375 C 215.917969 134.0625 215.0625 133.210938 214.011719 133.210938 C 212.960938 133.210938 212.105469 134.0625 212.105469 135.109375 C 212.105469 135.402344 212.171875 135.683594 212.300781 135.941406 L 210.136719 139.085938 C 210.546875 137.199219 211.15625 135.421875 211.550781 134.367188 C 212.574219 134.097656 213.328125 133.15625 213.328125 132.070312 C 213.328125 130.761719 212.257812 129.695312 210.941406 129.695312 C 209.621094 129.695312 208.550781 130.761719 208.550781 132.070312 C 208.550781 132.671875 208.785156 133.246094 209.1875 133.683594 C 208.035156 135.1875 206.652344 136.964844 205.933594 137.773438 C 205.78125 137.941406 205.632812 138.113281 205.488281 138.277344 C 204.382812 139.527344 203.425781 140.609375 202.382812 141.070312 C 202.03125 141.226562 201.59375 141.316406 201.175781 141.316406 C 200.578125 141.316406 199.769531 141.140625 199.300781 140.316406 C 199.28125 140.28125 199.257812 140.246094 199.234375 140.21875 C 199.226562 140.207031 199.214844 140.195312 199.207031 140.183594 C 197.445312 138.1875 196.789062 133.863281 196.582031 132.007812 C 197.464844 131.554688 198.042969 130.632812 198.042969 129.621094 C 198.042969 128.136719 196.832031 126.933594 195.339844 126.933594 Z M 195.339844 127.550781 C 196.492188 127.550781 197.425781 128.476562 197.425781 129.621094 C 197.425781 130.566406 196.789062 131.363281 195.917969 131.613281 C 196.085938 133.414062 196.722656 138.304688 198.738281 140.589844 C 198.746094 140.597656 198.753906 140.609375 198.761719 140.617188 C 199.3125 141.59375 200.273438 141.933594 201.175781 141.933594 C 201.714844 141.933594 202.234375 141.8125 202.632812 141.636719 C 203.945312 141.054688 205.027344 139.71875 206.398438 138.179688 C 207.210938 137.269531 208.84375 135.15625 210.039062 133.582031 C 209.519531 133.277344 209.171875 132.714844 209.171875 132.070312 C 209.171875 131.101562 209.964844 130.3125 210.941406 130.3125 C 211.914062 130.3125 212.707031 131.101562 212.707031 132.070312 C 212.707031 132.992188 211.996094 133.746094 211.09375 133.824219 C 210.691406 134.863281 209.984375 136.859375 209.523438 138.992188 C 208.972656 141.53125 209.011719 141.761719 209.042969 141.761719 C 209.050781 141.761719 209.054688 141.75 209.054688 141.75 L 209.195312 141.546875 L 213.046875 135.953125 C 212.847656 135.726562 212.726562 135.433594 212.726562 135.109375 C 212.726562 134.402344 213.300781 133.828125 214.011719 133.828125 C 214.722656 133.828125 215.296875 134.402344 215.296875 135.109375 C 215.296875 135.816406 214.722656 136.390625 214.011719 136.390625 C 213.964844 136.390625 213.921875 136.386719 213.875 136.382812 C 213.785156 136.546875 213.675781 136.746094 213.546875 136.976562 C 213.546875 136.976562 213.546875 136.980469 213.546875 136.980469 C 213.503906 137.054688 213.460938 137.132812 213.417969 137.214844 C 213.40625 137.238281 213.394531 137.261719 213.378906 137.285156 C 213.34375 137.351562 213.304688 137.421875 213.265625 137.496094 C 213.253906 137.515625 213.242188 137.535156 213.230469 137.558594 C 213.191406 137.632812 213.148438 137.707031 213.105469 137.785156 C 213.09375 137.8125 213.078125 137.835938 213.066406 137.863281 C 213.019531 137.949219 212.96875 138.035156 212.921875 138.125 C 212.914062 138.140625 212.90625 138.152344 212.898438 138.167969 C 212.78125 138.386719 212.65625 138.613281 212.527344 138.851562 C 212.523438 138.863281 212.515625 138.875 212.511719 138.882812 C 212.453125 138.988281 212.398438 139.09375 212.339844 139.203125 C 212.324219 139.230469 212.308594 139.257812 212.296875 139.28125 C 212.25 139.371094 212.199219 139.464844 212.148438 139.558594 C 212.128906 139.597656 212.105469 139.636719 212.085938 139.675781 C 212.042969 139.757812 211.996094 139.839844 211.953125 139.921875 C 211.929688 139.964844 211.90625 140.011719 211.882812 140.054688 C 211.839844 140.132812 211.800781 140.210938 211.757812 140.289062 C 211.730469 140.339844 211.703125 140.390625 211.675781 140.445312 C 211.640625 140.515625 211.601562 140.585938 211.5625 140.660156 C 211.53125 140.714844 211.503906 140.769531 211.476562 140.824219 C 211.4375 140.898438 211.398438 140.972656 211.359375 141.042969 C 211.304688 141.148438 211.25 141.25 211.199219 141.351562 C 211.160156 141.421875 211.121094 141.496094 211.085938 141.566406 C 211.050781 141.636719 211.011719 141.707031 210.976562 141.773438 C 210.949219 141.828125 210.921875 141.882812 210.894531 141.9375 C 210.851562 142.015625 210.8125 142.089844 210.773438 142.167969 C 210.75 142.214844 210.726562 142.261719 210.703125 142.304688 C 210.660156 142.386719 210.621094 142.464844 210.582031 142.542969 C 210.558594 142.585938 210.535156 142.628906 210.511719 142.675781 C 210.472656 142.753906 210.433594 142.832031 210.390625 142.914062 C 210.371094 142.949219 210.351562 142.988281 210.332031 143.027344 C 210.289062 143.113281 210.246094 143.195312 210.203125 143.28125 C 210.195312 143.304688 210.179688 143.328125 210.171875 143.351562 C 210.011719 143.667969 209.855469 143.980469 209.710938 144.277344 C 209.46875 144.773438 209.25 145.234375 209.074219 145.636719 C 208.863281 146.113281 208.707031 146.503906 208.632812 146.773438 C 208.0625 148.777344 208.0625 149.183594 208.0625 149.183594 L 161.765625 149.183594 C 161.617188 148.617188 161.164062 147.394531 160.5625 145.914062 C 159.304688 142.820312 157.40625 138.609375 156.28125 137.019531 C 155.949219 136.554688 155.707031 136.210938 155.519531 135.949219 C 155.371094 135.996094 155.214844 136.023438 155.046875 136.023438 C 154.183594 136.023438 153.484375 135.328125 153.484375 134.46875 C 153.484375 133.609375 154.183594 132.910156 155.046875 132.910156 C 155.910156 132.910156 156.613281 133.609375 156.613281 134.46875 C 156.613281 134.800781 156.503906 135.109375 156.324219 135.363281 C 157.085938 136.714844 158.269531 138.820312 158.644531 139.457031 C 159.167969 140.359375 160.453125 143.320312 160.453125 143.320312 C 160.453125 143.320312 160.574219 141.96875 160.488281 141.503906 C 160.488281 141.503906 159.679688 136.867188 159.046875 135.105469 C 158.691406 134.121094 158.523438 133.636719 158.445312 133.402344 C 158.386719 133.410156 158.328125 133.414062 158.265625 133.414062 C 157.148438 133.414062 156.242188 132.511719 156.242188 131.398438 C 156.242188 130.285156 157.148438 129.382812 158.265625 129.382812 C 159.386719 129.382812 160.292969 130.285156 160.292969 131.398438 C 160.292969 132.167969 159.859375 132.832031 159.222656 133.171875 C 160.34375 134.578125 161.96875 136.671875 162.671875 137.542969 C 163.636719 138.730469 165.621094 141.171875 167.488281 141.894531 C 167.792969 142.015625 168.089844 142.070312 168.378906 142.070312 C 169.863281 142.070312 171.097656 140.632812 171.714844 139.0625 C 172.445312 137.507812 172.902344 135.734375 173.035156 134.929688 C 173.222656 133.789062 173.441406 132.355469 173.550781 131.613281 C 172.675781 131.367188 172.035156 130.570312 172.035156 129.621094 C 172.035156 128.476562 172.96875 127.550781 174.117188 127.550781 C 175.269531 127.550781 176.203125 128.476562 176.203125 129.621094 C 176.203125 130.367188 175.804688 131.019531 175.210938 131.386719 C 176.160156 133.125 177.773438 135.820312 178.960938 137.34375 C 180.054688 138.75 182.0625 141.152344 184.601562 141.152344 C 184.808594 141.152344 185.015625 141.136719 185.230469 141.101562 C 186.582031 141.023438 188.023438 140.28125 189.453125 138.457031 C 192.167969 134.996094 193.570312 132.441406 194.128906 131.308594 C 193.601562 130.933594 193.253906 130.316406 193.253906 129.621094 C 193.253906 128.476562 194.1875 127.550781 195.339844 127.550781 " fill-opacity="1" fill-rule="nonzero"/></g><path fill="#ffffff" d="M 155.785156 134.46875 C 155.785156 134.871094 155.457031 135.199219 155.046875 135.199219 C 154.640625 135.199219 154.3125 134.871094 154.3125 134.46875 C 154.3125 134.0625 154.640625 133.734375 155.046875 133.734375 C 155.457031 133.734375 155.785156 134.0625 155.785156 134.46875 " fill-opacity="1" fill-rule="nonzero"/><path fill="#ffffff" d="M 159.003906 131.398438 C 159.003906 131.804688 158.675781 132.132812 158.265625 132.132812 C 157.859375 132.132812 157.53125 131.804688 157.53125 131.398438 C 157.53125 130.992188 157.859375 130.664062 158.265625 130.664062 C 158.675781 130.664062 159.003906 130.992188 159.003906 131.398438 " fill-opacity="1" fill-rule="nonzero"/><path fill="#38b6ff" d="M 208.074219 155.25 L 161.765625 155.25 L 161.765625 148.097656 L 208.074219 148.097656 L 208.074219 155.25 " fill-opacity="1" fill-rule="nonzero"/><path fill="#ffffff" d="M 208.074219 147.476562 L 161.765625 147.476562 C 161.425781 147.476562 161.148438 147.753906 161.148438 148.097656 L 161.148438 155.25 C 161.148438 155.589844 161.425781 155.867188 161.765625 155.867188 L 208.074219 155.867188 C 208.417969 155.867188 208.695312 155.589844 208.695312 155.25 L 208.695312 148.097656 C 208.695312 147.753906 208.417969 147.476562 208.074219 147.476562 Z M 208.074219 148.097656 L 208.074219 155.25 L 161.765625 155.25 L 161.765625 148.097656 L 208.074219 148.097656 " fill-opacity="1" fill-rule="nonzero"/><path fill="#ffffff" d="M 174.855469 129.621094 C 174.855469 130.027344 174.527344 130.355469 174.117188 130.355469 C 173.710938 130.355469 173.382812 130.027344 173.382812 129.621094 C 173.382812 129.21875 173.710938 128.886719 174.117188 128.886719 C 174.527344 128.886719 174.855469 129.21875 174.855469 129.621094 " fill-opacity="1" fill-rule="nonzero"/><path fill="#ffffff" d="M 196.078125 129.621094 C 196.078125 130.027344 195.746094 130.355469 195.339844 130.355469 C 194.933594 130.355469 194.601562 130.027344 194.601562 129.621094 C 194.601562 129.21875 194.933594 128.886719 195.339844 128.886719 C 195.746094 128.886719 196.078125 129.21875 196.078125 129.621094 " fill-opacity="1" fill-rule="nonzero"/><path fill="#ffffff" d="M 211.675781 132.070312 C 211.675781 132.476562 211.347656 132.804688 210.941406 132.804688 C 210.53125 132.804688 210.203125 132.476562 210.203125 132.070312 C 210.203125 131.667969 210.53125 131.339844 210.941406 131.339844 C 211.347656 131.339844 211.675781 131.667969 211.675781 132.070312 " fill-opacity="1" fill-rule="nonzero"/><path fill="#ffffff" d="M 214.75 135.109375 C 214.75 135.515625 214.417969 135.84375 214.011719 135.84375 C 213.605469 135.84375 213.273438 135.515625 213.273438 135.109375 C 213.273438 134.703125 213.605469 134.375 214.011719 134.375 C 214.417969 134.375 214.75 134.703125 214.75 135.109375 " fill-opacity="1" fill-rule="nonzero"/><path fill="#38b6ff" d="M 209.351562 149.128906 C 209.351562 149.71875 208.820312 150.199219 208.171875 150.199219 L 161.566406 150.199219 C 160.917969 150.199219 160.382812 149.71875 160.382812 149.128906 C 160.382812 148.539062 160.917969 148.058594 161.566406 148.058594 L 208.171875 148.058594 C 208.820312 148.058594 209.351562 148.539062 209.351562 149.128906 " fill-opacity="1" fill-rule="nonzero"/><path fill="#ffffff" d="M 208.171875 147.441406 L 161.566406 147.441406 C 160.570312 147.441406 159.761719 148.199219 159.761719 149.128906 C 159.761719 150.058594 160.570312 150.816406 161.566406 150.816406 L 208.171875 150.816406 C 209.164062 150.816406 209.972656 150.058594 209.972656 149.128906 C 209.972656 148.199219 209.164062 147.441406 208.171875 147.441406 Z M 208.171875 148.058594 C 208.820312 148.058594 209.351562 148.539062 209.351562 149.128906 C 209.351562 149.71875 208.820312 150.199219 208.171875 150.199219 L 161.566406 150.199219 C 160.917969 150.199219 160.382812 149.71875 160.382812 149.128906 C 160.382812 148.539062 160.917969 148.058594 161.566406 148.058594 L 208.171875 148.058594 " fill-opacity="1" fill-rule="nonzero"/><g clip-path="url(#id5)"><path fill="#38b6ff" d="M 209.351562 155.25 C 209.351562 155.835938 208.820312 156.320312 208.171875 156.320312 L 161.566406 156.320312 C 160.917969 156.320312 160.382812 155.835938 160.382812 155.25 C 160.382812 154.660156 160.917969 154.175781 161.566406 154.175781 L 208.171875 154.175781 C 208.820312 154.175781 209.351562 154.660156 209.351562 155.25 " fill-opacity="1" fill-rule="nonzero"/></g><g clip-path="url(#id6)"><path fill="#ffffff" d="M 208.171875 153.558594 L 161.566406 153.558594 C 160.570312 153.558594 159.761719 154.316406 159.761719 155.25 C 159.761719 156.179688 160.570312 156.9375 161.566406 156.9375 L 208.171875 156.9375 C 209.164062 156.9375 209.972656 156.179688 209.972656 155.25 C 209.972656 154.316406 209.164062 153.558594 208.171875 153.558594 Z M 208.171875 154.175781 C 208.820312 154.175781 209.351562 154.660156 209.351562 155.25 C 209.351562 155.835938 208.820312 156.320312 208.171875 156.320312 L 161.566406 156.320312 C 160.917969 156.320312 160.382812 155.835938 160.382812 155.25 C 160.382812 154.660156 160.917969 154.175781 161.566406 154.175781 L 208.171875 154.175781 " fill-opacity="1" fill-rule="nonzero"/></g><g clip-path="url(#id7)"><path fill="#38b6ff" d="M 158.09375 155.800781 C 159.136719 155.601562 158.71875 160.136719 163.917969 164.992188 C 173.46875 173.480469 187.738281 171.078125 198.050781 178.265625 C 205.152344 183.535156 204.925781 195.558594 195.261719 199.519531 C 209.375 204.605469 207.386719 223.808594 191.726562 224.371094 L 177.980469 224.371094 C 175.402344 224.183594 172.949219 225.007812 172.863281 223.351562 C 172.808594 221.734375 176 222.5 176.929688 222.335938 L 176.929688 201.792969 C 178.476562 202.445312 181.613281 203.300781 182.207031 203.628906 C 182.207031 204.695312 182.207031 222.339844 182.207031 222.339844 C 185.59375 222.328125 189.871094 222.484375 193.125 221.238281 C 198.019531 219.265625 200.972656 210.144531 195.746094 206.539062 C 187.488281 200.0625 161.3125 200.882812 159.289062 180.230469 C 159.3125 179.410156 160.378906 179.410156 160.480469 180.289062 C 164.453125 193.476562 177.238281 194.453125 189.910156 197.75 C 193.984375 197.464844 196.683594 192.339844 196.71875 188.507812 C 197.234375 180.757812 186.375 179.6875 175.003906 175.5 C 168.578125 173.097656 161.671875 169.363281 158.800781 161.996094 C 158.613281 161.539062 156.605469 155.710938 158.09375 155.800781 Z M 222.3125 199.804688 C 221.625 180.554688 205.410156 165.726562 186.800781 166.734375 C 216.933594 168.695312 229.773438 203.734375 209.070312 223.960938 C 187.542969 243.894531 154.429688 228.980469 152.835938 200.675781 C 151.902344 218.351562 165.035156 233.195312 181.742188 235.773438 C 203.964844 239.214844 223.121094 221.480469 222.3125 199.804688 Z M 222.3125 199.804688 " fill-opacity="1" fill-rule="nonzero"/></g></svg>